<svg xmlns="http://www.w3.org/2000/svg" viewBox="0 0 500 500"><g id="freepik--background-simple--inject-10"><path d="M158.78,44S76.83,85.75,36,150.1s-37.64,147,12,208.52S192.59,412,272.08,450.91s167.19,30.91,204.77-51.56S457.77,286.09,448,190.67,352.27-44.49,158.78,44Z" style="fill:#407BFF"></path><path d="M158.78,44S76.83,85.75,36,150.1s-37.64,147,12,208.52S192.59,412,272.08,450.91s167.19,30.91,204.77-51.56S457.77,286.09,448,190.67,352.27-44.49,158.78,44Z" style="fill:#fff;opacity:0.7000000000000001"></path></g><g id="freepik--Calendar--inject-10"><rect x="121.86" y="124.29" width="328.99" height="239.91" style="fill:#fff;stroke:#263238;stroke-linecap:round;stroke-linejoin:round"></rect><rect x="121.86" y="124.29" width="328.99" height="17.08" style="fill:#c9c9c9;stroke:#263238;stroke-linecap:round;stroke-linejoin:round"></rect><rect x="180.54" y="70.07" width="53.48" height="34.91" style="fill:#407BFF;stroke:#263238;stroke-miterlimit:10"></rect><rect x="239.22" y="70.07" width="53.48" height="34.91" style="fill:#407BFF;stroke:#263238;stroke-miterlimit:10"></rect><polygon points="175.34 89.38 175.34 70.07 121.86 70.07 121.86 89.38 121.86 104.98 121.86 124.29 450.86 124.29 450.86 89.38 175.34 89.38" style="fill:#263238;stroke:#263238;stroke-linecap:round;stroke-linejoin:round"></polygon><path d="M139,192.61v.17h-.66v-.2c0-.57-.22-.9-.72-.9s-.72.33-.72.89c0,1.41,2.11,1.54,2.11,3.31,0,1-.46,1.57-1.42,1.57s-1.4-.62-1.4-1.57v-.36h.65v.39c0,.57.23.9.74.9s.73-.33.73-.9c0-1.4-2.1-1.53-2.1-3.3,0-1,.45-1.57,1.39-1.57S139,191.66,139,192.61Z" style="fill:#263238"></path><path d="M140.32,195.9c0,.57.23.91.74.91s.73-.34.73-.91v-4.8h.65v4.77c0,.95-.44,1.59-1.41,1.59s-1.4-.64-1.4-1.59V191.1h.69Z" style="fill:#263238"></path><path d="M156.08,197.37h-.67l-1-5v5h-.61V191.1h1l1,5,1-5h1v6.28h-.67v-5Z" style="fill:#263238"></path><path d="M158.4,192.62c0-1,.48-1.58,1.44-1.58s1.44.62,1.44,1.58v3.25c0,.95-.47,1.58-1.44,1.58a1.38,1.38,0,0,1-1.44-1.58Zm.69,3.28c0,.58.24.91.75.91s.74-.33.74-.91v-3.32c0-.56-.23-.9-.74-.9s-.75.34-.75.9Z" style="fill:#263238"></path><path d="M176.1,197.38v-5.64h-1.16v-.64h3v.64h-1.16v5.64Z" style="fill:#263238"></path><path d="M179.08,195.9c0,.57.23.91.74.91s.73-.34.73-.91v-4.8h.65v4.77c0,.95-.44,1.59-1.41,1.59s-1.4-.64-1.4-1.59V191.1h.69Z" style="fill:#263238"></path><path d="M196.79,197.38h-1L195,191.1h.68l.74,5.35.7-5.34h.69l.69,5.35.71-5.36h.61l-.85,6.28H198l-.6-4.26Z" style="fill:#263238"></path><path d="M202.59,193.89v.62h-1.54v2.24h1.89v.63h-2.59V191.1h2.59v.64h-1.89v2.15Z" style="fill:#263238"></path><path d="M219.45,197.38v-5.64h-1.16v-.64h3v.64h-1.16v5.64Z" style="fill:#263238"></path><path d="M222.47,194.56v2.82h-.7V191.1h.7v2.83H224V191.1h.7v6.28H224v-2.82Z" style="fill:#263238"></path><path d="M243.11,194v.64h-1.45v2.71H241V191.1h2.49v.64h-1.8V194Z" style="fill:#263238"></path><path d="M245.41,191.1c1,0,1.4.51,1.4,1.44v.51c0,.69-.24,1.12-.78,1.29.58.17.79.64.79,1.31v1a1.5,1.5,0,0,0,.13.75h-.71a1.64,1.64,0,0,1-.12-.76v-1c0-.7-.33-.93-.91-.93h-.5v2.68H244V191.1Zm-.18,3c.56,0,.89-.17.89-.86v-.6c0-.56-.2-.86-.72-.86h-.69v2.32Z" style="fill:#263238"></path><path d="M268.6,192.61v.17h-.67v-.2c0-.57-.21-.9-.71-.9s-.72.33-.72.89c0,1.41,2.11,1.54,2.11,3.31,0,1-.46,1.57-1.42,1.57s-1.41-.62-1.41-1.57v-.36h.66v.39c0,.57.23.9.73.9s.74-.33.74-.9c0-1.4-2.1-1.53-2.1-3.3,0-1,.45-1.57,1.39-1.57S268.6,191.66,268.6,192.61Z" style="fill:#263238"></path><path d="M269.93,196.12l-.25,1.26H269l1.2-6.28h1l1.21,6.28h-.7l-.25-1.26Zm.09-.6h1.39l-.7-3.63Z" style="fill:#263238"></path><rect x="178.2" y="163.16" width="54.99" height="14.98" style="fill:#fff;stroke:#263238;stroke-linecap:round;stroke-linejoin:round"></rect><polygon points="171.78 170.43 174.51 175.97 174.51 164.88 171.78 170.43" style="fill:#263238;stroke:#263238;stroke-linecap:round;stroke-linejoin:round"></polygon><polygon points="238.93 170.43 236.19 175.97 236.19 164.88 238.93 170.43" style="fill:#263238;stroke:#263238;stroke-linecap:round;stroke-linejoin:round"></polygon><path d="M190.16,173.26h.4c.52,0,.84-.28.84-1v-5.45h.79v5.4c0,1.34-.67,1.76-1.53,1.78a2.75,2.75,0,0,1-.5,0Z" style="fill:#263238"></path><path d="M193.79,172.54l-.28,1.44h-.74l1.37-7.17h1.16l1.38,7.17h-.8l-.28-1.44Zm.1-.69h1.6l-.81-4.14Z" style="fill:#263238"></path><path d="M198,174h-.72v-7.17h1L200,172v-5.19h.7V174h-.83l-1.83-5.8Z" style="fill:#263238"></path><path d="M202.25,172.29c0,.65.26,1,.84,1s.83-.39.83-1v-5.48h.75v5.44c0,1.09-.5,1.82-1.61,1.82s-1.6-.73-1.6-1.82v-5.44h.79Z" style="fill:#263238"></path><path d="M206.27,172.54,206,174h-.73l1.37-7.17h1.16l1.37,7.17h-.8l-.28-1.44Zm.1-.69H208l-.81-4.14Z" style="fill:#263238"></path><path d="M211.39,166.81c1.12,0,1.59.57,1.59,1.64V169c0,.79-.27,1.29-.89,1.48.66.19.9.73.9,1.5v1.11a1.7,1.7,0,0,0,.15.86h-.81a1.88,1.88,0,0,1-.13-.87V172c0-.81-.38-1.07-1-1.07h-.56V174h-.8v-7.17Zm-.21,3.38c.64,0,1-.2,1-1v-.69c0-.64-.24-1-.84-1h-.77v2.65Z" style="fill:#263238"></path><path d="M215,171.41l-1.51-4.6h.83l1.11,3.53,1.13-3.53h.76l-1.53,4.6V174H215Z" style="fill:#263238"></path><circle cx="221.75" cy="260.44" r="8.03" style="fill:#407BFF"></circle><path d="M242.25,214.93a1.94,1.94,0,0,1-.87.27v-.58a1.07,1.07,0,0,0,1.07-.83h.49v6.28h-.69Z" style="fill:#263238"></path><path d="M268.71,215.31c0,1.9-2.13,2.58-2.14,4v.1h2.06v.64h-2.75v-.54c0-2,2.13-2.42,2.13-4.19,0-.65-.22-1-.74-1s-.73.37-.73.93v.55h-.66v-.51c0-1,.44-1.6,1.41-1.6S268.71,214.35,268.71,215.31Z" style="fill:#263238"></path><path d="M139.11,237.25v.16a1.48,1.48,0,0,0,0,2.59v.48c0,1-.44,1.59-1.41,1.59s-1.41-.63-1.41-1.59v-.43h.65v.48c0,.56.24.9.74.9s.73-.33.73-1V240c0-.62-.26-.91-.79-.93h-.37v-.63h.41a.75.75,0,0,0,.75-.86v-.29c0-.64-.22-1-.73-1s-.74.34-.74.91v.32h-.65v-.28c0-1,.45-1.58,1.41-1.58S139.11,236.29,139.11,237.25Z" style="fill:#263238"></path><path d="M156.31,240.74V242h-.68v-1.27h-2v-.63l2-4.38h.76v4.38h.5v.63Zm-2.06-.63h1.38V237Z" style="fill:#263238"></path><path d="M175.89,238.29a1,1,0,0,1,.93-.52c.81,0,1.17.59,1.17,1.49v1.22c0,1-.46,1.59-1.42,1.59s-1.41-.63-1.41-1.59v-.42h.66v.47c0,.56.23.9.74.9s.73-.34.73-.9v-1.22c0-.57-.23-.91-.73-.91a.68.68,0,0,0-.71.68v.14h-.66l.17-3.49h2.48v.63H176Z" style="fill:#263238"></path><path d="M197.94,237.24v.11h-.66v-.16c0-.56-.23-.89-.74-.89s-.76.34-.76,1v1.41a1,1,0,0,1,1-.68c.81,0,1.17.59,1.17,1.49v.95c0,1-.48,1.59-1.44,1.59s-1.44-.63-1.44-1.59v-3.2c0-1,.45-1.61,1.44-1.61S197.94,236.28,197.94,237.24Zm-2.16,2.35v.94c0,.56.23.9.74.9s.75-.34.75-.9v-.94c0-.57-.25-.91-.75-.91S195.78,239,195.78,239.59Z" style="fill:#263238"></path><path d="M220.63,236.36H218.5v-.63h2.84v.61L219.73,242H219Z" style="fill:#263238"></path><path d="M243.84,237.22v.2a1.24,1.24,0,0,1-.71,1.29,1.27,1.27,0,0,1,.71,1.33v.46a1.48,1.48,0,1,1-3,0V240a1.26,1.26,0,0,1,.72-1.33,1.23,1.23,0,0,1-.72-1.29v-.2a1.48,1.48,0,1,1,3,0Zm-2.26,0v.3c0,.61.29.88.78.88s.79-.27.79-.88v-.3c0-.65-.29-.94-.79-.94S241.58,236.59,241.58,237.24Zm0,2.71v.53c0,.65.28,1,.78,1s.79-.3.79-1V240c0-.6-.26-.9-.79-.9S241.58,239.35,241.58,240Z" style="fill:#263238"></path><path d="M268.7,237.25v3.2c0,1-.45,1.62-1.46,1.62s-1.41-.62-1.41-1.58v-.11h.65v.16c0,.56.24.89.75.89s.77-.34.77-1V239a1,1,0,0,1-1,.67c-.8,0-1.16-.58-1.16-1.48v-1c0-1,.46-1.58,1.43-1.58S268.7,236.29,268.7,237.25Zm-2.19,0v.94c0,.57.24.91.74.91s.75-.34.75-.91v-.94c0-.57-.24-.91-.75-.91S266.51,236.64,266.51,237.21Z" style="fill:#263238"></path><path d="M137.61,258.81a1.86,1.86,0,0,1-.87.27v-.57a1.07,1.07,0,0,0,1.07-.84h.49V264h-.69Z" style="fill:#263238"></path><path d="M139.3,259.19c0-1,.48-1.58,1.44-1.58s1.44.62,1.44,1.58v3.24c0,1-.47,1.58-1.44,1.58s-1.44-.62-1.44-1.58Zm.69,3.28c0,.57.24.91.75.91s.74-.34.74-.91v-3.32c0-.57-.23-.91-.74-.91s-.75.34-.75.91Z" style="fill:#263238"></path><path d="M155.05,258.81a1.86,1.86,0,0,1-.87.27v-.57a1.07,1.07,0,0,0,1.07-.84h.49V264h-.69Z" style="fill:#263238"></path><path d="M158.08,258.81a1.82,1.82,0,0,1-.87.27v-.57a1.07,1.07,0,0,0,1.07-.84h.49V264h-.69Z" style="fill:#263238"></path><path d="M176.47,258.81a1.82,1.82,0,0,1-.87.27v-.57a1.09,1.09,0,0,0,1.08-.84h.48V264h-.69Z" style="fill:#263238"></path><path d="M181.05,259.2c0,1.89-2.13,2.57-2.14,4v.1H181V264h-2.76v-.54c0-2,2.13-2.42,2.13-4.19,0-.64-.22-1-.74-1s-.73.37-.73.92v.56h-.66v-.51c0-1,.44-1.6,1.41-1.6S181.05,258.24,181.05,259.2Z" style="fill:#263238"></path><path d="M196.4,258.81a1.79,1.79,0,0,1-.87.27v-.57a1.08,1.08,0,0,0,1.08-.84h.48V264h-.69Z" style="fill:#263238"></path><path d="M200.94,259.19v.16a1.48,1.48,0,0,0,0,2.59v.49c0,1-.45,1.58-1.41,1.58s-1.41-.62-1.41-1.58V262h.65v.47c0,.57.24.91.74.91s.73-.33.73-1v-.49c0-.61-.26-.91-.79-.93h-.37v-.63h.41c.47,0,.75-.31.75-.86v-.28c0-.65-.22-1-.73-1s-.74.35-.74.91v.33h-.65v-.29c0-1,.45-1.58,1.41-1.58S200.94,258.23,200.94,259.19Z" style="fill:#263238"></path><path d="M219.82,258.81a1.79,1.79,0,0,1-.87.27v-.57a1.08,1.08,0,0,0,1.08-.84h.48V264h-.69Z" style="fill:#263238"></path><path d="M224.12,262.69V264h-.68v-1.26h-2v-.64l2-4.38h.76v4.38h.5v.64Zm-2.06-.64h1.38V259Z" style="fill:#263238"></path><path d="M242.25,258.81a1.86,1.86,0,0,1-.87.27v-.57a1.07,1.07,0,0,0,1.07-.84h.49V264h-.69Z" style="fill:#263238"></path><path d="M244.7,260.23a1,1,0,0,1,.93-.52c.81,0,1.17.59,1.17,1.49v1.23c0,1-.46,1.58-1.42,1.58s-1.41-.62-1.41-1.58V262h.65v.46c0,.57.24.91.74.91s.73-.34.73-.91v-1.22c0-.56-.23-.9-.73-.9a.67.67,0,0,0-.71.67v.14H244l.17-3.49h2.47v.63h-1.85Z" style="fill:#263238"></path><path d="M267.16,258.81a1.82,1.82,0,0,1-.87.27v-.57a1.09,1.09,0,0,0,1.08-.84h.48V264h-.69Z" style="fill:#263238"></path><path d="M271.73,259.18v.12h-.66v-.16c0-.57-.23-.9-.74-.9s-.76.34-.76,1v1.41a1,1,0,0,1,1-.67c.81,0,1.17.58,1.17,1.49v.95c0,1-.48,1.58-1.44,1.58s-1.44-.62-1.44-1.58v-3.21c0-1,.44-1.61,1.44-1.61S271.73,258.22,271.73,259.18Zm-2.16,2.35v.94c0,.57.23.91.74.91s.75-.34.75-.91v-.94c0-.56-.25-.91-.75-.91S269.57,261,269.57,261.53Z" style="fill:#263238"></path><path d="M137.61,280.76a1.85,1.85,0,0,1-.87.26v-.57a1.07,1.07,0,0,0,1.07-.83h.49v6.28h-.69Z" style="fill:#263238"></path><path d="M141.45,280.24h-2.14v-.62h2.84v.61l-1.61,5.67h-.7Z" style="fill:#263238"></path><path d="M155.05,280.76a1.85,1.85,0,0,1-.87.26v-.57a1.07,1.07,0,0,0,1.07-.83h.49v6.28h-.69Z" style="fill:#263238"></path><path d="M159.67,281.1v.2a1.23,1.23,0,0,1-.71,1.29,1.27,1.27,0,0,1,.71,1.33v.47a1.48,1.48,0,1,1-3,0v-.47a1.27,1.27,0,0,1,.73-1.33,1.22,1.22,0,0,1-.73-1.29v-.2a1.48,1.48,0,1,1,3,0Zm-2.26,0v.31c0,.61.29.88.78.88s.79-.27.79-.88v-.31c0-.64-.29-.94-.79-.94S157.41,280.48,157.41,281.12Zm0,2.72v.53c0,.65.28.95.78.95s.79-.3.79-.95v-.53c0-.61-.26-.91-.79-.91S157.41,283.23,157.41,283.84Z" style="fill:#263238"></path><path d="M176.47,280.76a1.82,1.82,0,0,1-.87.26v-.57a1.08,1.08,0,0,0,1.08-.83h.48v6.28h-.69Z" style="fill:#263238"></path><path d="M181,281.13v3.2c0,1-.45,1.63-1.45,1.63s-1.42-.62-1.42-1.58v-.12h.65v.16c0,.57.25.9.75.9s.77-.34.77-1v-1.41a1,1,0,0,1-1,.66c-.81,0-1.17-.57-1.17-1.48v-1c0-1,.47-1.58,1.43-1.58S181,280.17,181,281.13Zm-2.19,0V282c0,.56.24.9.74.9s.75-.34.75-.9v-.94c0-.58-.23-.91-.75-.91S178.85,280.52,178.85,281.1Z" style="fill:#263238"></path><path d="M198,281.14c0,1.89-2.13,2.58-2.14,4v.1h2.07v.64h-2.76v-.54c0-2,2.13-2.43,2.13-4.19,0-.65-.22-1-.74-1s-.73.37-.73.92v.56h-.66v-.51c0-1,.44-1.6,1.41-1.6S198,280.18,198,281.14Z" style="fill:#263238"></path><path d="M198.54,281.13c0-1,.48-1.58,1.44-1.58s1.44.62,1.44,1.58v3.24c0,1-.48,1.59-1.44,1.59s-1.44-.63-1.44-1.59Zm.69,3.28c0,.57.24.91.75.91s.74-.34.74-.91V281.1c0-.58-.23-.92-.74-.92s-.75.34-.75.92Z" style="fill:#263238"></path><path d="M221.37,281.14c0,1.89-2.13,2.58-2.14,4v.1h2.07v.64h-2.76v-.54c0-2,2.13-2.43,2.13-4.19,0-.65-.22-1-.74-1s-.73.37-.73.92v.56h-.66v-.51c0-1,.44-1.6,1.41-1.6S221.37,280.18,221.37,281.14Z" style="fill:#263238"></path><path d="M223.3,280.76a1.85,1.85,0,0,1-.87.26v-.57a1.07,1.07,0,0,0,1.07-.83H224v6.28h-.69Z" style="fill:#263238"></path><path d="M243.79,281.14c0,1.89-2.13,2.58-2.13,4v.1h2.06v.64H241v-.54c0-2,2.13-2.43,2.13-4.19,0-.65-.21-1-.73-1s-.74.37-.74.92v.56H241v-.51c0-1,.44-1.6,1.41-1.6S243.79,280.18,243.79,281.14Z" style="fill:#263238"></path><path d="M247.26,281.14c0,1.89-2.13,2.58-2.13,4v.1h2.06v.64h-2.75v-.54c0-2,2.12-2.43,2.12-4.19,0-.65-.21-1-.73-1s-.74.37-.74.92v.56h-.65v-.51c0-1,.43-1.6,1.4-1.6S247.26,280.18,247.26,281.14Z" style="fill:#263238"></path><path d="M268.71,281.14c0,1.89-2.13,2.58-2.14,4v.1h2.06v.64h-2.75v-.54c0-2,2.13-2.43,2.13-4.19,0-.65-.22-1-.74-1s-.74.37-.74.92v.56h-.65v-.51c0-1,.44-1.6,1.41-1.6S268.71,280.18,268.71,281.14Z" style="fill:#263238"></path><path d="M272.14,281.13v.16a1.26,1.26,0,0,1-.76,1.3,1.24,1.24,0,0,1,.76,1.3v.48c0,1-.45,1.59-1.42,1.59s-1.41-.63-1.41-1.59v-.43H270v.47c0,.57.23.91.73.91s.74-.33.74-1v-.48c0-.62-.26-.92-.79-.94h-.38v-.62h.42a.76.76,0,0,0,.75-.86v-.29c0-.65-.22-1-.74-1s-.73.35-.73.92v.32h-.66v-.29c0-1,.45-1.58,1.41-1.58S272.14,280.17,272.14,281.13Z" style="fill:#263238"></path><path d="M139.15,303.08c0,1.9-2.13,2.58-2.14,4v.1h2.07v.64h-2.76v-.54c0-2,2.13-2.42,2.13-4.19,0-.65-.22-1-.74-1s-.73.37-.73.93v.55h-.66v-.51c0-1,.44-1.59,1.41-1.59S139.15,302.12,139.15,303.08Z" style="fill:#263238"></path><path d="M142.34,306.57v1.27h-.68v-1.27h-2v-.63l2-4.38h.76v4.38h.5v.63Zm-2.06-.63h1.38v-3.07Z" style="fill:#263238"></path><path d="M156.59,303.08c0,1.9-2.13,2.58-2.13,4v.1h2.06v.64h-2.76v-.54c0-2,2.13-2.42,2.13-4.19,0-.65-.21-1-.74-1s-.73.37-.73.93v.55h-.66v-.51c0-1,.44-1.59,1.41-1.59S156.59,302.12,156.59,303.08Z" style="fill:#263238"></path><path d="M157.94,304.11a1,1,0,0,1,.93-.51c.81,0,1.16.59,1.16,1.48v1.23c0,1-.45,1.59-1.41,1.59s-1.41-.63-1.41-1.59v-.42h.65v.47c0,.56.24.9.74.9s.73-.34.73-.9v-1.22c0-.57-.23-.91-.73-.91a.68.68,0,0,0-.71.67v.15h-.65l.17-3.49h2.47v.63H158Z" style="fill:#263238"></path><path d="M178,303.08c0,1.9-2.13,2.58-2.14,4v.1h2.06v.64h-2.75v-.54c0-2,2.13-2.42,2.13-4.19,0-.65-.22-1-.74-1s-.73.37-.73.93v.55h-.66v-.51c0-1,.44-1.59,1.41-1.59S178,302.12,178,303.08Z" style="fill:#263238"></path><path d="M181.48,303.07v.11h-.66V303c0-.56-.23-.9-.74-.9s-.76.34-.76,1v1.41a1,1,0,0,1,1-.68c.81,0,1.17.59,1.17,1.49v.95c0,1-.48,1.59-1.44,1.59s-1.44-.63-1.44-1.59v-3.2c0-1,.45-1.61,1.44-1.61S181.48,302.11,181.48,303.07Zm-2.16,2.35v.94c0,.56.23.9.74.9s.75-.34.75-.9v-.94c0-.57-.25-.91-.75-.91S179.32,304.85,179.32,305.42Z" style="fill:#263238"></path><path d="M198,303.08c0,1.9-2.13,2.58-2.14,4v.1h2.07v.64h-2.76v-.54c0-2,2.13-2.42,2.13-4.19,0-.65-.22-1-.74-1s-.73.37-.73.93v.55h-.66v-.51c0-1,.44-1.59,1.41-1.59S198,302.12,198,303.08Z" style="fill:#263238"></path><path d="M200.68,302.19h-2.13v-.63h2.84v.61l-1.61,5.67h-.7Z" style="fill:#263238"></path><path d="M221.37,303.08c0,1.9-2.13,2.58-2.14,4v.1h2.07v.64h-2.76v-.54c0-2,2.13-2.42,2.13-4.19,0-.65-.22-1-.74-1s-.73.37-.73.93v.55h-.66v-.51c0-1,.44-1.59,1.41-1.59S221.37,302.12,221.37,303.08Z" style="fill:#263238"></path><path d="M224.89,303.05v.19a1.24,1.24,0,0,1-.72,1.3,1.27,1.27,0,0,1,.72,1.32v.47a1.48,1.48,0,1,1-3,0v-.47a1.26,1.26,0,0,1,.73-1.32,1.24,1.24,0,0,1-.73-1.3v-.19a1.48,1.48,0,1,1,3,0Zm-2.27,0v.3c0,.61.3.88.79.88s.79-.27.79-.88v-.3c0-.65-.29-.95-.79-.95S222.62,302.42,222.62,303.07Zm0,2.71v.53c0,.65.29.95.79.95s.78-.3.79-.95v-.53c0-.61-.27-.9-.79-.9S222.62,305.17,222.62,305.78Z" style="fill:#263238"></path><path d="M243.79,303.08c0,1.9-2.13,2.58-2.13,4v.1h2.06v.64H241v-.54c0-2,2.13-2.42,2.13-4.19,0-.65-.21-1-.73-1s-.74.37-.74.93v.55H241v-.51c0-1,.44-1.59,1.41-1.59S243.79,302.12,243.79,303.08Z" style="fill:#263238"></path><path d="M247.25,303.07v3.21c0,1-.45,1.62-1.45,1.62s-1.42-.62-1.42-1.58v-.11H245v.16c0,.56.24.89.74.89s.77-.34.77-1v-1.41a1,1,0,0,1-1,.66c-.81,0-1.17-.57-1.17-1.48v-1c0-1,.47-1.57,1.44-1.57S247.25,302.11,247.25,303.07Zm-2.19,0V304c0,.57.25.91.75.91s.74-.34.74-.91V303c0-.58-.23-.91-.74-.91S245.06,302.46,245.06,303Z" style="fill:#263238"></path><path d="M268.67,303.07v.17a1.48,1.48,0,0,0,0,2.59v.48c0,1-.45,1.59-1.42,1.59s-1.41-.63-1.41-1.59v-.43h.66v.48c0,.56.23.9.73.9s.74-.33.74-1v-.48c0-.62-.26-.91-.79-.93h-.38v-.63h.42a.75.75,0,0,0,.75-.86v-.29c0-.64-.22-1-.74-1s-.73.35-.73.92v.32h-.66v-.29c0-1,.45-1.57,1.41-1.57S268.67,302.11,268.67,303.07Z" style="fill:#263238"></path><path d="M269.3,303.07c0-1,.47-1.57,1.43-1.57a1.37,1.37,0,0,1,1.45,1.57v3.24c0,1-.48,1.59-1.45,1.59s-1.43-.63-1.43-1.59Zm.69,3.29c0,.56.24.9.74.9s.75-.34.75-.9V303c0-.58-.24-.92-.75-.92s-.74.34-.74.92Z" style="fill:#263238"></path><path d="M139.11,325v.16a1.48,1.48,0,0,0,0,2.59v.49c0,1-.44,1.58-1.41,1.58s-1.41-.62-1.41-1.58v-.43h.65v.47c0,.57.24.91.74.91s.73-.34.73-1v-.49c0-.62-.26-.91-.79-.93h-.37v-.63h.41c.47,0,.75-.31.75-.86V325c0-.64-.22-1-.73-1s-.74.35-.74.91v.32h-.65V325c0-1,.45-1.58,1.41-1.58S139.11,324.06,139.11,325Z" style="fill:#263238"></path><path d="M141.08,324.64a2,2,0,0,1-.87.27v-.57a1.07,1.07,0,0,0,1.07-.84h.49v6.28h-.69Z" style="fill:#263238"></path><path d="M294.94,192.61v.17h-.67v-.2c0-.57-.21-.9-.72-.9s-.71.33-.71.89c0,1.41,2.1,1.54,2.1,3.31,0,1-.45,1.57-1.41,1.57s-1.41-.62-1.41-1.57v-.36h.65v.39c0,.57.24.9.74.9s.74-.33.74-.9c0-1.4-2.1-1.53-2.1-3.3,0-1,.44-1.57,1.39-1.57S294.94,191.66,294.94,192.61Z" style="fill:#263238"></path><path d="M296.22,195.9c0,.57.22.91.73.91s.73-.34.73-.91v-4.8h.66v4.77c0,.95-.44,1.59-1.41,1.59s-1.4-.64-1.4-1.59V191.1h.69Z" style="fill:#263238"></path><path d="M312,197.37h-.67l-1-5v5h-.61V191.1h1l1,5,1-5h1v6.28H313v-5Z" style="fill:#263238"></path><path d="M314.3,192.62c0-1,.47-1.58,1.43-1.58s1.44.62,1.44,1.58v3.25c0,.95-.47,1.58-1.44,1.58s-1.43-.63-1.43-1.58Zm.69,3.28c0,.58.24.91.74.91s.75-.33.75-.91v-3.32c0-.56-.24-.9-.75-.9s-.74.34-.74.9Z" style="fill:#263238"></path><path d="M332,197.38v-5.64h-1.16v-.64h3v.64h-1.16v5.64Z" style="fill:#263238"></path><path d="M335,195.9c0,.57.22.91.73.91s.73-.34.73-.91v-4.8h.65v4.77c0,.95-.44,1.59-1.4,1.59s-1.4-.64-1.4-1.59V191.1H335Z" style="fill:#263238"></path><path d="M352.68,197.38h-1l-.86-6.28h.69l.73,5.35.7-5.34h.69l.69,5.35.71-5.36h.61l-.85,6.28h-.93l-.6-4.26Z" style="fill:#263238"></path><path d="M358.48,193.89v.62h-1.54v2.24h1.89v.63h-2.58V191.1h2.58v.64h-1.89v2.15Z" style="fill:#263238"></path><path d="M375.34,197.38v-5.64h-1.16v-.64h3v.64H376v5.64Z" style="fill:#263238"></path><path d="M378.36,194.56v2.82h-.7V191.1h.7v2.83h1.55V191.1h.7v6.28h-.7v-2.82Z" style="fill:#263238"></path><path d="M399,194v.64h-1.44v2.71h-.7V191.1h2.49v.64h-1.79V194Z" style="fill:#263238"></path><path d="M401.31,191.1c1,0,1.4.51,1.4,1.44v.51a1.18,1.18,0,0,1-.78,1.29c.57.17.79.64.79,1.31v1a1.63,1.63,0,0,0,.12.75h-.71a1.67,1.67,0,0,1-.11-.76v-1c0-.7-.33-.93-.92-.93h-.49v2.68h-.7V191.1Zm-.18,3c.56,0,.89-.17.89-.86v-.6c0-.56-.21-.86-.73-.86h-.68v2.32Z" style="fill:#263238"></path><path d="M424.49,192.61v.17h-.66v-.2c0-.57-.22-.9-.72-.9s-.72.33-.72.89c0,1.41,2.11,1.54,2.11,3.31,0,1-.46,1.57-1.42,1.57s-1.4-.62-1.4-1.57v-.36h.65v.39c0,.57.23.9.74.9s.73-.33.73-.9c0-1.4-2.1-1.53-2.1-3.3,0-1,.45-1.57,1.39-1.57S424.49,191.66,424.49,192.61Z" style="fill:#263238"></path><path d="M425.82,196.12l-.24,1.26h-.65l1.2-6.28h1l1.2,6.28h-.7l-.24-1.26Zm.09-.6h1.4l-.71-3.63Z" style="fill:#263238"></path><rect x="332.96" y="163.16" width="54.99" height="14.98" style="fill:#fff;stroke:#263238;stroke-linecap:round;stroke-linejoin:round"></rect><polygon points="326.54 170.43 329.27 175.97 329.27 164.88 326.54 170.43" style="fill:#263238;stroke:#263238;stroke-linecap:round;stroke-linejoin:round"></polygon><polygon points="393.69 170.43 390.95 175.97 390.95 164.88 393.69 170.43" style="fill:#263238;stroke:#263238;stroke-linecap:round;stroke-linejoin:round"></polygon><path d="M344.91,173.26h.4c.53,0,.84-.28.84-1v-5.45h.79v5.4c0,1.34-.66,1.76-1.52,1.78a2.88,2.88,0,0,1-.51,0Z" style="fill:#263238"></path><path d="M348.54,172.54l-.27,1.44h-.74l1.37-7.17h1.16l1.37,7.17h-.8l-.27-1.44Zm.11-.69h1.59l-.81-4.14Z" style="fill:#263238"></path><path d="M352.77,174h-.72v-7.17h1l1.66,5.19v-5.19h.71V174h-.83l-1.83-5.8Z" style="fill:#263238"></path><path d="M357,172.29c0,.65.26,1,.84,1s.83-.39.83-1v-5.48h.75v5.44c0,1.09-.5,1.82-1.61,1.82s-1.6-.73-1.6-1.82v-5.44H357Z" style="fill:#263238"></path><path d="M361,172.54l-.28,1.44H360l1.38-7.17h1.15l1.38,7.17h-.8l-.28-1.44Zm.1-.69h1.6l-.81-4.14Z" style="fill:#263238"></path><path d="M366.14,166.81c1.13,0,1.6.57,1.6,1.64V169c0,.79-.28,1.29-.89,1.48.66.19.9.73.9,1.5v1.11a1.81,1.81,0,0,0,.14.86h-.8a1.72,1.72,0,0,1-.14-.87V172c0-.81-.38-1.07-1-1.07h-.57V174h-.8v-7.17Zm-.2,3.38c.63,0,1-.2,1-1v-.69c0-.64-.23-1-.83-1h-.78v2.65Z" style="fill:#263238"></path><path d="M369.75,171.41l-1.52-4.6h.83l1.12,3.53,1.13-3.53h.76l-1.53,4.6V174h-.79Z" style="fill:#263238"></path><circle cx="353.91" cy="305.01" r="8.03" transform="translate(-112.02 339.59) rotate(-45)" style="fill:#407BFF"></circle><path d="M398.14,214.93a1.94,1.94,0,0,1-.87.27v-.58a1.08,1.08,0,0,0,1.08-.83h.48v6.28h-.69Z" style="fill:#263238"></path><path d="M424.6,215.31c0,1.9-2.13,2.58-2.13,4v.1h2.06v.64h-2.76v-.54c0-2,2.13-2.42,2.13-4.19,0-.65-.22-1-.74-1s-.73.37-.73.93v.55h-.66v-.51c0-1,.44-1.6,1.41-1.6S424.6,214.35,424.6,215.31Z" style="fill:#263238"></path><path d="M295,237.25v.16a1.48,1.48,0,0,0,0,2.59v.48c0,1-.45,1.59-1.42,1.59s-1.41-.63-1.41-1.59v-.43h.66v.48c0,.56.23.9.73.9s.74-.33.74-1V240c0-.62-.26-.91-.79-.93h-.38v-.63h.41a.75.75,0,0,0,.76-.86v-.29c0-.64-.23-1-.74-1s-.73.34-.73.91v.32h-.66v-.28c0-1,.45-1.58,1.41-1.58S295,236.29,295,237.25Z" style="fill:#263238"></path><path d="M312.21,240.74V242h-.69v-1.27h-2v-.63l1.94-4.38h.77v4.38h.5v.63Zm-2.07-.63h1.38V237Z" style="fill:#263238"></path><path d="M331.78,238.29a1,1,0,0,1,.94-.52c.8,0,1.16.59,1.16,1.49v1.22c0,1-.45,1.59-1.41,1.59s-1.41-.63-1.41-1.59v-.42h.65v.47c0,.56.24.9.74.9s.73-.34.73-.9v-1.22c0-.57-.23-.91-.73-.91a.68.68,0,0,0-.71.68v.14h-.66l.17-3.49h2.48v.63h-1.85Z" style="fill:#263238"></path><path d="M353.83,237.24v.11h-.65v-.16c0-.56-.24-.89-.75-.89s-.76.34-.76,1v1.41a1,1,0,0,1,1-.68c.81,0,1.17.59,1.17,1.49v.95c0,1-.48,1.59-1.44,1.59s-1.44-.63-1.44-1.59v-3.2c0-1,.45-1.61,1.44-1.61S353.83,236.28,353.83,237.24Zm-2.16,2.35v.94c0,.56.23.9.74.9s.75-.34.75-.9v-.94c0-.57-.24-.91-.75-.91S351.67,239,351.67,239.59Z" style="fill:#263238"></path><path d="M376.53,236.36h-2.14v-.63h2.84v.61L375.62,242h-.7Z" style="fill:#263238"></path><path d="M399.74,237.22v.2a1.25,1.25,0,0,1-.72,1.29,1.27,1.27,0,0,1,.72,1.33v.46a1.48,1.48,0,1,1-3,0V240a1.27,1.27,0,0,1,.72-1.33,1.23,1.23,0,0,1-.72-1.29v-.2a1.48,1.48,0,1,1,3,0Zm-2.27,0v.3c0,.61.29.88.79.88s.79-.27.79-.88v-.3c0-.65-.3-.94-.79-.94S397.47,236.59,397.47,237.24Zm0,2.71v.53c0,.65.29,1,.79,1s.78-.3.79-1V240c0-.6-.27-.9-.79-.9S397.47,239.35,397.47,240Z" style="fill:#263238"></path><path d="M424.59,237.25v3.2c0,1-.45,1.62-1.45,1.62s-1.42-.62-1.42-1.58v-.11h.65v.16c0,.56.25.89.75.89s.77-.34.77-1V239a1,1,0,0,1-1,.67c-.81,0-1.17-.58-1.17-1.48v-1c0-1,.47-1.58,1.44-1.58S424.59,236.29,424.59,237.25Zm-2.19,0v.94c0,.57.24.91.75.91s.74-.34.74-.91v-.94c0-.57-.23-.91-.74-.91S422.4,236.64,422.4,237.21Z" style="fill:#263238"></path><path d="M293.5,258.81a1.82,1.82,0,0,1-.87.27v-.57a1.09,1.09,0,0,0,1.08-.84h.48V264h-.69Z" style="fill:#263238"></path><path d="M295.19,259.19c0-1,.48-1.58,1.44-1.58s1.44.62,1.44,1.58v3.24c0,1-.47,1.58-1.44,1.58s-1.44-.62-1.44-1.58Zm.7,3.28c0,.57.24.91.74.91s.74-.34.74-.91v-3.32c0-.57-.23-.91-.74-.91s-.74.34-.74.91Z" style="fill:#263238"></path><path d="M310.94,258.81a1.82,1.82,0,0,1-.87.27v-.57a1.09,1.09,0,0,0,1.08-.84h.48V264h-.69Z" style="fill:#263238"></path><path d="M314,258.81a1.82,1.82,0,0,1-.87.27v-.57a1.09,1.09,0,0,0,1.08-.84h.48V264H314Z" style="fill:#263238"></path><path d="M332.37,258.81a1.86,1.86,0,0,1-.87.27v-.57a1.07,1.07,0,0,0,1.07-.84h.49V264h-.69Z" style="fill:#263238"></path><path d="M336.94,259.2c0,1.89-2.12,2.57-2.13,4v.1h2.06V264h-2.75v-.54c0-2,2.12-2.42,2.12-4.19,0-.64-.21-1-.73-1s-.74.37-.74.92v.56h-.65v-.51c0-1,.44-1.6,1.4-1.6S336.94,258.24,336.94,259.2Z" style="fill:#263238"></path><path d="M352.3,258.81a1.86,1.86,0,0,1-.87.27v-.57a1.07,1.07,0,0,0,1.07-.84H353V264h-.69Z" style="fill:#263238"></path><path d="M356.84,259.19v.16a1.47,1.47,0,0,0,0,2.59v.49c0,1-.45,1.58-1.42,1.58s-1.41-.62-1.41-1.58V262h.66v.47c0,.57.23.91.73.91s.74-.33.74-1v-.49c0-.61-.26-.91-.79-.93H355v-.63h.41a.75.75,0,0,0,.76-.86v-.28c0-.65-.23-1-.74-1s-.73.35-.73.91v.33H354v-.29c0-1,.45-1.58,1.41-1.58S356.84,258.23,356.84,259.19Z" style="fill:#263238"></path><path d="M375.72,258.81a1.86,1.86,0,0,1-.87.27v-.57a1.07,1.07,0,0,0,1.07-.84h.49V264h-.69Z" style="fill:#263238"></path><path d="M380,262.69V264h-.68v-1.26h-2v-.64l1.94-4.38H380v4.38h.51v.64Zm-2.06-.64h1.38V259Z" style="fill:#263238"></path><path d="M398.14,258.81a1.82,1.82,0,0,1-.87.27v-.57a1.09,1.09,0,0,0,1.08-.84h.48V264h-.69Z" style="fill:#263238"></path><path d="M400.59,260.23a1,1,0,0,1,.93-.52c.81,0,1.17.59,1.17,1.49v1.23c0,1-.46,1.58-1.42,1.58s-1.41-.62-1.41-1.58V262h.66v.46c0,.57.23.91.73.91s.74-.34.74-.91v-1.22c0-.56-.23-.9-.74-.9a.68.68,0,0,0-.71.67v.14h-.65l.17-3.49h2.48v.63h-1.85Z" style="fill:#263238"></path><path d="M423.06,258.81a1.86,1.86,0,0,1-.87.27v-.57a1.07,1.07,0,0,0,1.07-.84h.49V264h-.69Z" style="fill:#263238"></path><path d="M427.62,259.18v.12H427v-.16c0-.57-.24-.9-.75-.9s-.76.34-.76,1v1.41a1,1,0,0,1,1-.67c.81,0,1.17.58,1.17,1.49v.95c0,1-.48,1.58-1.44,1.58s-1.44-.62-1.44-1.58v-3.21c0-1,.45-1.61,1.44-1.61S427.62,258.22,427.62,259.18Zm-2.16,2.35v.94c0,.57.23.91.74.91s.75-.34.75-.91v-.94c0-.56-.24-.91-.75-.91S425.46,261,425.46,261.53Z" style="fill:#263238"></path><path d="M293.5,280.76a1.82,1.82,0,0,1-.87.26v-.57a1.08,1.08,0,0,0,1.08-.83h.48v6.28h-.69Z" style="fill:#263238"></path><path d="M297.34,280.24H295.2v-.62h2.85v.61l-1.62,5.67h-.7Z" style="fill:#263238"></path><path d="M310.94,280.76a1.82,1.82,0,0,1-.87.26v-.57a1.08,1.08,0,0,0,1.08-.83h.48v6.28h-.69Z" style="fill:#263238"></path><path d="M315.57,281.1v.2a1.23,1.23,0,0,1-.72,1.29,1.28,1.28,0,0,1,.72,1.33v.47a1.48,1.48,0,1,1-3,0v-.47a1.28,1.28,0,0,1,.72-1.33,1.21,1.21,0,0,1-.72-1.29v-.2a1.48,1.48,0,1,1,3,0Zm-2.27,0v.31c0,.61.29.88.79.88s.79-.27.79-.88v-.31c0-.64-.3-.94-.79-.94S313.3,280.48,313.3,281.12Zm0,2.72v.53c0,.65.29.95.79.95s.78-.3.79-.95v-.53c0-.61-.27-.91-.79-.91S313.3,283.23,313.3,283.84Z" style="fill:#263238"></path><path d="M332.37,280.76a1.85,1.85,0,0,1-.87.26v-.57a1.07,1.07,0,0,0,1.07-.83h.49v6.28h-.69Z" style="fill:#263238"></path><path d="M336.93,281.13v3.2c0,1-.45,1.63-1.45,1.63s-1.42-.62-1.42-1.58v-.12h.66v.16c0,.57.24.9.74.9s.77-.34.77-1v-1.41a1,1,0,0,1-1,.66c-.81,0-1.17-.57-1.17-1.48v-1c0-1,.47-1.58,1.44-1.58S336.93,280.17,336.93,281.13Zm-2.19,0V282c0,.56.25.9.75.9s.74-.34.74-.9v-.94c0-.58-.23-.91-.74-.91S334.74,280.52,334.74,281.1Z" style="fill:#263238"></path><path d="M353.84,281.14c0,1.89-2.12,2.58-2.13,4v.1h2.06v.64H351v-.54c0-2,2.12-2.43,2.12-4.19,0-.65-.21-1-.73-1s-.74.37-.74.92v.56H351v-.51c0-1,.44-1.6,1.4-1.6S353.84,280.18,353.84,281.14Z" style="fill:#263238"></path><path d="M354.43,281.13c0-1,.48-1.58,1.44-1.58s1.44.62,1.44,1.58v3.24c0,1-.47,1.59-1.44,1.59s-1.44-.63-1.44-1.59Zm.69,3.28c0,.57.25.91.75.91s.74-.34.74-.91V281.1c0-.58-.23-.92-.74-.92s-.75.34-.75.92Z" style="fill:#263238"></path><path d="M377.26,281.14c0,1.89-2.13,2.58-2.13,4v.1h2.06v.64h-2.76v-.54c0-2,2.13-2.43,2.13-4.19,0-.65-.21-1-.73-1s-.74.37-.74.92v.56h-.66v-.51c0-1,.44-1.6,1.41-1.6S377.26,280.18,377.26,281.14Z" style="fill:#263238"></path><path d="M379.19,280.76a1.82,1.82,0,0,1-.87.26v-.57a1.09,1.09,0,0,0,1.08-.83h.48v6.28h-.69Z" style="fill:#263238"></path><path d="M399.68,281.14c0,1.89-2.12,2.58-2.13,4v.1h2.06v.64h-2.75v-.54c0-2,2.12-2.43,2.12-4.19,0-.65-.21-1-.73-1s-.74.37-.74.92v.56h-.65v-.51c0-1,.44-1.6,1.41-1.6S399.68,280.18,399.68,281.14Z" style="fill:#263238"></path><path d="M403.15,281.14c0,1.89-2.12,2.58-2.13,4v.1h2.06v.64h-2.75v-.54c0-2,2.12-2.43,2.12-4.19,0-.65-.21-1-.73-1s-.74.37-.74.92v.56h-.65v-.51c0-1,.44-1.6,1.41-1.6S403.15,280.18,403.15,281.14Z" style="fill:#263238"></path><path d="M424.6,281.14c0,1.89-2.13,2.58-2.14,4v.1h2.07v.64h-2.76v-.54c0-2,2.13-2.43,2.13-4.19,0-.65-.22-1-.74-1s-.73.37-.73.92v.56h-.66v-.51c0-1,.44-1.6,1.41-1.6S424.6,280.18,424.6,281.14Z" style="fill:#263238"></path><path d="M428,281.13v.16a1.26,1.26,0,0,1-.76,1.3,1.24,1.24,0,0,1,.76,1.3v.48c0,1-.44,1.59-1.41,1.59s-1.41-.63-1.41-1.59v-.43h.65v.47c0,.57.24.91.74.91s.73-.33.73-1v-.48c0-.62-.26-.92-.79-.94h-.37v-.62h.41a.75.75,0,0,0,.75-.86v-.29c0-.65-.22-1-.73-1s-.74.35-.74.92v.32h-.65v-.29c0-1,.45-1.58,1.41-1.58S428,280.17,428,281.13Z" style="fill:#263238"></path><path d="M295,303.08c0,1.9-2.12,2.58-2.13,4v.1H295v.64h-2.75v-.54c0-2,2.12-2.42,2.12-4.19,0-.65-.21-1-.73-1s-.74.37-.74.93v.55h-.65v-.51c0-1,.44-1.59,1.41-1.59S295,302.12,295,303.08Z" style="fill:#263238"></path><path d="M298.24,306.57v1.27h-.69v-1.27h-2v-.63l1.94-4.38h.77v4.38h.5v.63Zm-2.07-.63h1.38v-3.07Z" style="fill:#263238"></path><path d="M312.48,303.08c0,1.9-2.12,2.58-2.13,4v.1h2.06v.64h-2.75v-.54c0-2,2.12-2.42,2.12-4.19,0-.65-.21-1-.73-1s-.74.37-.74.93v.55h-.65v-.51c0-1,.44-1.59,1.41-1.59S312.48,302.12,312.48,303.08Z" style="fill:#263238"></path><path d="M313.83,304.11a1,1,0,0,1,.93-.51c.81,0,1.17.59,1.17,1.48v1.23c0,1-.46,1.59-1.42,1.59s-1.41-.63-1.41-1.59v-.42h.66v.47c0,.56.23.9.73.9s.74-.34.74-.9v-1.22c0-.57-.24-.91-.74-.91a.69.69,0,0,0-.71.67v.15h-.65l.17-3.49h2.48v.63h-1.85Z" style="fill:#263238"></path><path d="M333.91,303.08c0,1.9-2.13,2.58-2.13,4v.1h2.06v.64h-2.76v-.54c0-2,2.13-2.42,2.13-4.19,0-.65-.21-1-.74-1s-.73.37-.73.93v.55h-.66v-.51c0-1,.44-1.59,1.41-1.59S333.91,302.12,333.91,303.08Z" style="fill:#263238"></path><path d="M337.37,303.07v.11h-.65V303c0-.56-.24-.9-.75-.9s-.76.34-.76,1v1.41a1,1,0,0,1,1-.68c.81,0,1.17.59,1.17,1.49v.95c0,1-.48,1.59-1.44,1.59s-1.44-.63-1.44-1.59v-3.2c0-1,.45-1.61,1.44-1.61S337.37,302.11,337.37,303.07Zm-2.16,2.35v.94c0,.56.23.9.74.9s.75-.34.75-.9v-.94c0-.57-.24-.91-.75-.91S335.21,304.85,335.21,305.42Z" style="fill:#263238"></path><path d="M353.84,303.08c0,1.9-2.12,2.58-2.13,4v.1h2.06v.64H351v-.54c0-2,2.12-2.42,2.12-4.19,0-.65-.21-1-.73-1s-.74.37-.74.93v.55H351v-.51c0-1,.44-1.59,1.4-1.59S353.84,302.12,353.84,303.08Z" style="fill:#263238"></path><path d="M356.58,302.19h-2.14v-.63h2.85v.61l-1.62,5.67H355Z" style="fill:#263238"></path><path d="M377.26,303.08c0,1.9-2.13,2.58-2.13,4v.1h2.06v.64h-2.76v-.54c0-2,2.13-2.42,2.13-4.19,0-.65-.21-1-.73-1s-.74.37-.74.93v.55h-.66v-.51c0-1,.44-1.59,1.41-1.59S377.26,302.12,377.26,303.08Z" style="fill:#263238"></path><path d="M380.79,303.05v.19a1.55,1.55,0,0,0,0,2.62v.47a1.48,1.48,0,1,1-3,0v-.47a1.25,1.25,0,0,1,.72-1.32,1.24,1.24,0,0,1-.72-1.3v-.19a1.48,1.48,0,1,1,3,0Zm-2.27,0v.3c0,.61.29.88.79.88s.78-.27.78-.88v-.3c0-.65-.29-.95-.78-.95S378.52,302.42,378.52,303.07Zm0,2.71v.53c0,.65.28.95.79.95s.78-.3.78-.95v-.53c0-.61-.26-.9-.78-.9S378.52,305.17,378.52,305.78Z" style="fill:#263238"></path><path d="M399.68,303.08c0,1.9-2.12,2.58-2.13,4v.1h2.06v.64h-2.75v-.54c0-2,2.12-2.42,2.12-4.19,0-.65-.21-1-.73-1s-.74.37-.74.93v.55h-.65v-.51c0-1,.44-1.59,1.41-1.59S399.68,302.12,399.68,303.08Z" style="fill:#263238"></path><path d="M403.15,303.07v3.21c0,1-.45,1.62-1.46,1.62s-1.42-.62-1.42-1.58v-.11h.66v.16c0,.56.24.89.74.89s.78-.34.78-1v-1.41a1,1,0,0,1-1,.66c-.8,0-1.16-.57-1.16-1.48v-1c0-1,.46-1.57,1.43-1.57A1.37,1.37,0,0,1,403.15,303.07ZM401,303V304c0,.57.24.91.74.91s.75-.34.75-.91V303c0-.58-.24-.91-.75-.91S401,302.46,401,303Z" style="fill:#263238"></path><path d="M424.56,303.07v.17a1.48,1.48,0,0,0,0,2.59v.48c0,1-.45,1.59-1.41,1.59s-1.41-.63-1.41-1.59v-.43h.65v.48c0,.56.24.9.74.9s.73-.33.73-1v-.48c0-.62-.26-.91-.79-.93h-.37v-.63h.41a.75.75,0,0,0,.75-.86v-.29c0-.64-.22-1-.73-1s-.74.35-.74.92v.32h-.65v-.29c0-1,.45-1.57,1.41-1.57S424.56,302.11,424.56,303.07Z" style="fill:#263238"></path><path d="M425.19,303.07c0-1,.48-1.57,1.44-1.57s1.44.61,1.44,1.57v3.24c0,1-.48,1.59-1.44,1.59s-1.44-.63-1.44-1.59Zm.69,3.29c0,.56.24.9.75.9s.74-.34.74-.9V303c0-.58-.23-.92-.74-.92s-.75.34-.75.92Z" style="fill:#263238"></path><path d="M295,325v.16a1.48,1.48,0,0,0,0,2.59v.49c0,1-.45,1.58-1.42,1.58s-1.41-.62-1.41-1.58v-.43h.66v.47c0,.57.23.91.73.91s.74-.34.74-1v-.49c0-.62-.26-.91-.79-.93h-.38v-.63h.41a.75.75,0,0,0,.76-.86V325c0-.64-.23-1-.74-1s-.73.35-.73.91v.32h-.66V325c0-1,.45-1.58,1.41-1.58S295,324.06,295,325Z" style="fill:#263238"></path><path d="M297,324.64a1.94,1.94,0,0,1-.87.27v-.57a1.09,1.09,0,0,0,1.08-.84h.48v6.28H297Z" style="fill:#263238"></path><line x1="134.72" y1="204.78" x2="438.44" y2="204.78" style="fill:none;stroke:#b5b5b5;stroke-linecap:round;stroke-linejoin:round"></line><line x1="283.78" y1="161.92" x2="283.78" y2="330.15" style="fill:none;stroke:#b5b5b5;stroke-linecap:round;stroke-linejoin:round"></line><path d="M144.53,97c0,1.14,0,2.18,0,3.22a7.24,7.24,0,0,1-.11,2.73c-.34.74-1.3,1.2-2,1.78a1,1,0,0,0-.22.17.75.75,0,0,0-.15.36c0,.64,0,1.27,0,2,1.19-.35,2.28-.71,3.39-1a2.4,2.4,0,0,1,1.13,0c1.12.28,2.22.62,3.33.94.27-1.9.21-2-1.17-3.16-.33-.27-.66-.52-1-.8a.69.69,0,0,1-.28-.43c0-1.89,0-3.78,0-5.78l11.15,3.45c0-.75,0-1.4,0-2a1,1,0,0,0-.55-1c-3.34-2-6.66-4-10-5.95a1.08,1.08,0,0,1-.63-1.08c0-2.5,0-5,0-7.5a1.5,1.5,0,0,0-.87-1.52,1.46,1.46,0,0,0-2.07,1.51q0,3.8,0,7.57a1,1,0,0,1-.55,1c-3.38,2-6.75,4-10.11,6-.2.12-.48.32-.5.5,0,.81,0,1.63,0,2.54Z" style="fill:#fff"></path><path d="M144.53,97l-11.17,3.49c0-.91,0-1.73,0-2.54,0-.18.3-.38.5-.5,3.36-2,6.73-4,10.11-6a1,1,0,0,0,.55-1q0-3.78,0-7.57a1.46,1.46,0,0,1,2.07-1.51,1.5,1.5,0,0,1,.87,1.52c0,2.5,0,5,0,7.5a1.08,1.08,0,0,0,.63,1.08c3.34,2,6.66,4,10,5.95a1,1,0,0,1,.55,1c0,.64,0,1.29,0,2L147.47,97c0,2,0,3.89,0,5.78a.69.69,0,0,0,.28.43c.31.28.64.53,1,.8,1.38,1.11,1.44,1.26,1.17,3.16-1.11-.32-2.21-.66-3.33-.94a2.4,2.4,0,0,0-1.13,0c-1.11.29-2.2.65-3.39,1,0-.69,0-1.32,0-2a.75.75,0,0,1,.15-.36,1,1,0,0,1,.22-.17c.69-.58,1.65-1,2-1.78a7.24,7.24,0,0,0,.11-2.73C144.54,99.15,144.53,98.11,144.53,97Z" style="fill:#fff"></path></g></svg>