<svg xmlns="http://www.w3.org/2000/svg" viewBox="0 0 500 500"><g id="freepik--Plants--inject-29"><path d="M337.63,381.54c2.4,1,8.28.92,8.28.92s-1.26-3.85-1.37-4.08c-1.29-2.7-5.37-7.16-8.69-6.71a4,4,0,0,0-3.18,5C333.22,378.94,335.58,380.65,337.63,381.54Z" style="fill:#263238"></path><path d="M339.65,398.57c2.5.36,7.74-1.16,8.16-1.28a71.63,71.63,0,0,0,3.18,8.8c.72,1.67,1.5,3.33,2.3,5-.47-.7-.91-1.33-1-1.41-1.95-2.26-7.06-5.48-10.15-4.17a4,4,0,0,0-1.75,5.63c1.14,2.07,3.86,3.1,6.07,3.42s6.74-.88,7.93-1.22c.31.63.62,1.27.94,1.9,1.52,3,3,6,4.46,9,.49,1.06.94,2.12,1.4,3.18-.43-.62-.79-1.14-.86-1.22-2-2.26-7.06-5.48-10.14-4.17a4,4,0,0,0-1.76,5.63c1.14,2.07,3.86,3.1,6.07,3.42s6.31-.77,7.72-1.16c.43,1.1.87,2.2,1.24,3.28.23.75.51,1.45.71,2.21s.41,1.49.62,2.23c.34,1.43.71,2.9,1,4.31.21,1,.4,1.91.59,2.85-.48-1.06-1.47-3.11-1.57-3.28-1.59-2.53-6.16-6.48-9.4-5.66a4,4,0,0,0-2.59,5.3c.81,2.22,3.35,3.65,5.49,4.3,2.35.72,7.56.06,8.21,0,.31,1.55.6,3.07.85,4.5.18,1.07.35,2.09.51,3.07H370c-.2-1.09-.42-2.24-.65-3.43-.31-1.58-.68-3.26-1.07-5a42,42,0,0,0,4.58-2.15c1.72,1.85,6.11,4,6.68,4.3-.6,1.47-1.2,2.9-1.78,4.23l-.9,2h2.2c.18-.42.35-.83.53-1.27.61-1.49,1.24-3.09,1.86-4.75.63.14,5.79,1.18,8.19.64,2.18-.49,4.82-1.72,5.79-3.88a4,4,0,0,0-2.18-5.47c-3.18-1.07-8,2.53-9.8,4.94-.1.14-1.07,1.81-1.66,2.87.25-.68.5-1.33.76-2,.5-1.38,1-2.77,1.47-4.27.22-.73.44-1.47.67-2.22s.39-1.54.59-2.32c.44-1.81.78-3.67,1.09-5.55,1.21.44,5.54,1.95,7.77,1.79s5-1,6.32-3a4,4,0,0,0-1.34-5.74c-3-1.54-8.31,1.29-10.43,3.4-.13.13-1.48,1.82-2.2,2.76.17-1.13.36-2.26.5-3.41.41-3.32.72-6.7,1.05-10.06.1-1,.22-2.06.32-3.08.43.16,5.53,2.05,8,1.88,2.22-.16,5-1,6.31-3a4,4,0,0,0-1.33-5.74c-3-1.54-8.31,1.29-10.43,3.4-.16.16-2.1,2.59-2.57,3.23.24-2.26.5-4.52.85-6.73a68.52,68.52,0,0,1,1.93-8.84c.2.08,5.51,2.08,8.07,1.9,2.23-.16,5-1,6.32-3a4,4,0,0,0-1.33-5.74c-3-1.54-8.32,1.29-10.44,3.4-.16.17-2.25,2.78-2.59,3.28.05-.17.08-.35.13-.51a51.51,51.51,0,0,1,3.5-8.37c.77-1.49,1.58-2.88,2.4-4.2.95.47,5.32,2.59,7.65,2.69s5.1-.42,6.6-2.25a4,4,0,0,0-.7-5.85c-2.79-1.86-8.4.37-10.74,2.23-.13.1-1.3,1.28-2.15,2.14.38-.59.76-1.21,1.13-1.77,1.4-2.11,2.82-3.95,4.08-5.58.73-.92,1.4-1.73,2-2.49,1.18,0,5.92-.16,8-1.14s4.33-2.72,4.82-5a4,4,0,0,0-3.31-4.88c-3.33-.36-7.29,4.21-8.51,6.94-.1.23-1.32,4.12-1.26,4.12h.07c-.63.72-1.3,1.49-2,2.36-1.3,1.6-2.76,3.42-4.21,5.5a71.56,71.56,0,0,0-4.37,7,52,52,0,0,0-3.73,8.4l0,.1c0-1,0-3.72-.05-3.93-.39-3-2.87-8.47-6.16-9.08a4,4,0,0,0-4.57,3.73c-.2,2.35,1.51,4.71,3.18,6.2,1.88,1.68,7.09,3.3,7.51,3.43a70.71,70.71,0,0,0-2.21,9.1c-.32,1.79-.58,3.6-.83,5.43,0-.85,0-1.61,0-1.72-.39-3-2.87-8.47-6.16-9.08a4,4,0,0,0-4.58,3.73c-.19,2.36,1.52,4.72,3.19,6.2s6.1,3,7.28,3.36l-.27,2.1c-.4,3.36-.78,6.72-1.26,10-.17,1.15-.38,2.29-.58,3.42,0-.75,0-1.39,0-1.49-.39-3-2.87-8.47-6.17-9.07a4,4,0,0,0-4.57,3.72c-.19,2.36,1.52,4.72,3.18,6.21s5.68,2.83,7.07,3.29c-.24,1.15-.48,2.31-.77,3.42-.22.75-.37,1.49-.63,2.23s-.47,1.47-.71,2.2c-.5,1.38-1,2.81-1.54,4.15-.35.93-.71,1.81-1.07,2.7.18-1.15.49-3.4.49-3.59a15.38,15.38,0,0,0-2.06-7.49,4.25,4.25,0,0,0-.06-.87,4,4,0,0,0-4.84-3.37c-3.24.86-5.29,6.55-5.44,9.53,0,.18.1,2.1.2,3.31-.17-.7-.32-1.39-.49-2.11-.34-1.43-.73-2.85-1.13-4.38-.22-.73-.44-1.47-.67-2.21s-.52-1.51-.78-2.27c-.64-1.75-1.37-3.49-2.15-5.23,1.25-.3,5.68-1.43,7.46-2.79s3.65-3.59,3.64-5.95a4,4,0,0,0-4.28-4.06c-3.33.36-6.22,5.67-6.83,8.6,0,.18-.23,2.33-.32,3.51-.47-1-.94-2.08-1.46-3.12-1.49-3-3.08-6-4.67-9L355,411.94c.45-.1,5.74-1.33,7.74-2.86,1.77-1.36,3.65-3.58,3.63-5.95a4,4,0,0,0-4.28-4.06c-3.33.37-6.22,5.67-6.82,8.6-.05.22-.33,3.31-.36,4.1-1.05-2-2.07-4-3-6.07a69.16,69.16,0,0,1-3.27-8.44c.21-.05,5.74-1.31,7.78-2.87,1.77-1.36,3.65-3.59,3.64-5.95a4,4,0,0,0-4.28-4.06c-3.33.36-6.22,5.67-6.83,8.6,0,.23-.34,3.55-.35,4.16-.05-.17-.13-.33-.18-.5a51.78,51.78,0,0,1-1.69-8.91c-.19-1.67-.27-3.27-.32-4.83,1.05-.12,5.87-.77,7.86-2s4-3.16,4.27-5.52a4,4,0,0,0-3.81-4.5c-3.35,0-6.8,4.95-7.73,7.79,0,.16-.38,1.79-.61,3,0-.71,0-1.43,0-2.11,0-2.53.16-4.85.32-6.9.1-1.17.21-2.22.33-3.2,1-.67,4.84-3.4,6-5.36s2.12-4.66,1.25-6.86a4,4,0,0,0-5.46-2.24c-3,1.54-3.75,7.53-3.26,10.48,0,.25,1.16,4.16,1.22,4.13l.05,0c-.13.94-.26,2-.37,3.07-.21,2.05-.42,4.37-.48,6.92a67.92,67.92,0,0,0,.2,8.21,52,52,0,0,0,1.52,9.06l0,.1c-.53-.82-2.08-3.09-2.22-3.25-2-2.26-7.06-5.48-10.14-4.17a4,4,0,0,0-1.76,5.63C334.72,397.22,337.44,398.25,339.65,398.57Z" style="fill:#263238"></path><path d="M397.08,382.83c.05,0,1.07-3.9,1.11-4.16.41-3-.54-8.93-3.55-10.38a4,4,0,0,0-5.39,2.39c-.81,2.22.21,4.94,1.43,6.82C392.1,379.7,397.08,382.83,397.08,382.83Z" style="fill:#263238"></path><path d="M407.34,421.72a12.43,12.43,0,0,0,3.63.4s-.55-1.69-.6-1.79c-.56-1.18-2.35-3.13-3.8-2.94a1.75,1.75,0,0,0-1.4,2.18A3.63,3.63,0,0,0,407.34,421.72Z" style="fill:#263238"></path><path d="M408.23,429.17a11.83,11.83,0,0,0,3.57-.56,30.91,30.91,0,0,0,1.4,3.86c.31.73.66,1.46,1,2.18-.21-.3-.4-.58-.43-.61-.86-1-3.1-2.4-4.45-1.83a1.74,1.74,0,0,0-.77,2.47,3.64,3.64,0,0,0,2.66,1.49,11.11,11.11,0,0,0,3.47-.53l.42.83c.66,1.33,1.33,2.65,1.95,4,.22.46.41.93.61,1.39-.18-.27-.34-.5-.37-.53-.86-1-3.1-2.4-4.45-1.83a1.75,1.75,0,0,0-.77,2.47,3.66,3.66,0,0,0,2.67,1.49,11,11,0,0,0,3.37-.5c.19.48.38,1,.55,1.43s.22.64.31,1l.27,1c.15.62.31,1.27.44,1.88.1.43.18.84.26,1.25-.21-.46-.64-1.36-.69-1.43-.69-1.11-2.69-2.84-4.11-2.48a1.73,1.73,0,0,0-1.14,2.32,3.63,3.63,0,0,0,2.4,1.88,11.71,11.71,0,0,0,3.6,0c.14.68.26,1.35.37,2,.08.46.16.91.23,1.34h.91c-.09-.48-.18-1-.28-1.5-.14-.7-.3-1.43-.47-2.19a20.31,20.31,0,0,0,2-.94,12.67,12.67,0,0,0,2.92,1.88q-.39,1-.78,1.86c-.13.31-.26.6-.39.89h1l.23-.56c.27-.65.55-1.35.82-2.08a11.79,11.79,0,0,0,3.59.28,3.57,3.57,0,0,0,2.53-1.7,1.72,1.72,0,0,0-1-2.39c-1.39-.47-3.51,1.11-4.29,2.16,0,.06-.46.79-.72,1.26.11-.3.22-.58.33-.89.22-.61.42-1.22.65-1.87.09-.32.19-.65.29-1s.17-.68.26-1c.19-.79.34-1.61.48-2.43a11.45,11.45,0,0,0,3.4.78,3.61,3.61,0,0,0,2.76-1.29,1.73,1.73,0,0,0-.58-2.52c-1.3-.67-3.64.57-4.57,1.49-.06.06-.65.8-1,1.21.08-.5.16-1,.22-1.49.18-1.46.32-2.94.47-4.41,0-.45.09-.9.14-1.35a12,12,0,0,0,3.51.82,3.6,3.6,0,0,0,2.77-1.29,1.74,1.74,0,0,0-.58-2.52c-1.31-.67-3.64.57-4.57,1.49-.07.07-.92,1.14-1.13,1.42.11-1,.22-2,.37-3a31.59,31.59,0,0,1,.85-3.87,12.33,12.33,0,0,0,3.54.83,3.65,3.65,0,0,0,2.76-1.29,1.73,1.73,0,0,0-.58-2.52c-1.3-.67-3.64.57-4.57,1.49-.07.07-1,1.22-1.14,1.44l.06-.23a21.62,21.62,0,0,1,1.54-3.66c.33-.66.69-1.26,1-1.84a12,12,0,0,0,3.35,1.17,3.61,3.61,0,0,0,2.89-1,1.72,1.72,0,0,0-.3-2.56c-1.22-.82-3.68.16-4.7,1-.06,0-.58.55-.95.93l.5-.77c.61-.93,1.23-1.73,1.79-2.45.31-.4.61-.76.89-1.09a11.79,11.79,0,0,0,3.5-.49,3.66,3.66,0,0,0,2.11-2.21,1.74,1.74,0,0,0-1.45-2.14c-1.46-.15-3.19,1.85-3.72,3-.05.11-.59,1.81-.56,1.8h0l-.88,1c-.57.7-1.21,1.5-1.84,2.42a29.51,29.51,0,0,0-1.91,3,22.89,22.89,0,0,0-1.64,3.68s0,0,0,.05c0-.43,0-1.63,0-1.73-.16-1.29-1.25-3.71-2.69-4a1.75,1.75,0,0,0-2,1.63,3.67,3.67,0,0,0,1.4,2.72,12.19,12.19,0,0,0,3.29,1.5,29.65,29.65,0,0,0-1,4c-.14.79-.26,1.58-.36,2.38,0-.37,0-.7,0-.75-.17-1.3-1.26-3.71-2.7-4a1.73,1.73,0,0,0-2,1.63,3.59,3.59,0,0,0,1.39,2.71,11.53,11.53,0,0,0,3.19,1.48l-.12.92c-.17,1.47-.34,2.94-.55,4.37-.07.51-.17,1-.26,1.5,0-.33,0-.61,0-.65-.17-1.3-1.26-3.71-2.7-4a1.75,1.75,0,0,0-2,1.64,3.64,3.64,0,0,0,1.4,2.71,10.86,10.86,0,0,0,3.1,1.45c-.11.5-.22,1-.34,1.49-.1.33-.17.66-.28,1s-.21.65-.31,1c-.22.6-.44,1.23-.67,1.81-.16.41-.32.8-.47,1.19.08-.51.21-1.49.21-1.58a6.81,6.81,0,0,0-.9-3.28,2.43,2.43,0,0,0,0-.38,1.73,1.73,0,0,0-2.12-1.47c-1.42.37-2.31,2.86-2.38,4.17,0,.08.05.92.09,1.45-.08-.31-.14-.61-.22-.92-.15-.63-.31-1.25-.49-1.92-.1-.32-.2-.65-.29-1s-.23-.66-.35-1c-.28-.77-.6-1.53-.94-2.29a11.63,11.63,0,0,0,3.27-1.23,3.6,3.6,0,0,0,1.59-2.6,1.73,1.73,0,0,0-1.87-1.78c-1.46.16-2.73,2.48-3,3.76,0,.08-.1,1-.14,1.54-.21-.45-.42-.91-.64-1.36-.65-1.32-1.35-2.63-2.05-3.93l-.62-1.21a11.88,11.88,0,0,0,3.38-1.25,3.66,3.66,0,0,0,1.6-2.61A1.74,1.74,0,0,0,418,429.4c-1.46.16-2.72,2.48-3,3.76,0,.1-.14,1.45-.15,1.8-.46-.89-.91-1.77-1.32-2.66a31.27,31.27,0,0,1-1.43-3.7,12.21,12.21,0,0,0,3.41-1.26,3.63,3.63,0,0,0,1.59-2.6,1.73,1.73,0,0,0-1.87-1.78c-1.46.16-2.73,2.48-3,3.77,0,.1-.15,1.55-.16,1.82l-.07-.22a21.75,21.75,0,0,1-.75-3.9c-.08-.73-.12-1.43-.14-2.12a11.5,11.5,0,0,0,3.45-.86,3.68,3.68,0,0,0,1.87-2.42,1.74,1.74,0,0,0-1.67-2c-1.47,0-3,2.17-3.39,3.41,0,.07-.17.79-.27,1.31,0-.31,0-.63,0-.92,0-1.11.07-2.13.14-3,0-.51.1-1,.15-1.4a11.55,11.55,0,0,0,2.64-2.35,3.61,3.61,0,0,0,.54-3,1.73,1.73,0,0,0-2.38-1c-1.31.67-1.65,3.29-1.44,4.59,0,.11.52,1.82.54,1.81l0,0c-.05.41-.11.86-.16,1.34-.09.9-.18,1.92-.21,3a29.66,29.66,0,0,0,.09,3.6,22.22,22.22,0,0,0,.66,4l0,0c-.23-.36-.91-1.35-1-1.42-.86-1-3.1-2.4-4.45-1.83a1.74,1.74,0,0,0-.77,2.47A3.64,3.64,0,0,0,408.23,429.17Z" style="fill:#263238"></path><path d="M433.38,422.28s.47-1.71.49-1.82c.18-1.3-.23-3.91-1.55-4.55a1.75,1.75,0,0,0-2.37,1,3.66,3.66,0,0,0,.63,3A12.37,12.37,0,0,0,433.38,422.28Z" style="fill:#263238"></path><path d="M59.52,421.72a12.35,12.35,0,0,0,3.62.4s-.55-1.69-.6-1.79c-.56-1.18-2.35-3.13-3.8-2.94a1.75,1.75,0,0,0-1.4,2.18A3.65,3.65,0,0,0,59.52,421.72Z" style="fill:#263238"></path><path d="M60.4,429.17a11.91,11.91,0,0,0,3.58-.56,30.83,30.83,0,0,0,1.39,3.86c.32.73.66,1.46,1,2.18-.21-.3-.4-.58-.43-.61-.86-1-3.1-2.4-4.45-1.83a1.75,1.75,0,0,0-.77,2.47,3.66,3.66,0,0,0,2.66,1.49,11.22,11.22,0,0,0,3.48-.53c.13.28.27.56.41.83.66,1.33,1.33,2.65,2,4,.22.46.41.93.61,1.39-.18-.27-.34-.5-.37-.53-.86-1-3.09-2.4-4.44-1.83a1.73,1.73,0,0,0-.77,2.47,3.64,3.64,0,0,0,2.66,1.49,11.08,11.08,0,0,0,3.38-.5c.19.48.38,1,.54,1.43s.22.64.31,1l.27,1c.15.62.31,1.27.44,1.88.1.43.18.84.26,1.25-.21-.46-.64-1.36-.69-1.43-.69-1.11-2.69-2.84-4.11-2.48a1.74,1.74,0,0,0-1.14,2.32,3.63,3.63,0,0,0,2.41,1.88,11.65,11.65,0,0,0,3.59,0c.14.68.27,1.35.37,2,.09.46.16.91.23,1.34h.91c-.08-.48-.18-1-.28-1.5-.14-.7-.3-1.43-.47-2.19a19.26,19.26,0,0,0,2-.94,12.67,12.67,0,0,0,2.92,1.88q-.39,1-.78,1.86c-.13.31-.26.6-.39.89h1c.08-.19.16-.37.23-.56.27-.65.55-1.35.82-2.08a11.82,11.82,0,0,0,3.59.28,3.57,3.57,0,0,0,2.53-1.7,1.72,1.72,0,0,0-1-2.39c-1.39-.47-3.52,1.11-4.29,2.16,0,.06-.47.79-.73,1.26.11-.3.22-.58.33-.89.22-.61.43-1.22.65-1.87.09-.32.19-.65.29-1s.17-.68.26-1c.19-.79.34-1.61.48-2.43a11.45,11.45,0,0,0,3.4.78A3.6,3.6,0,0,0,87,442.31a1.73,1.73,0,0,0-.58-2.52c-1.3-.67-3.64.57-4.57,1.49-.06.06-.65.8-1,1.21.07-.5.15-1,.22-1.49.18-1.46.31-2.94.46-4.41,0-.45.09-.9.14-1.35a12,12,0,0,0,3.52.82A3.58,3.58,0,0,0,88,434.77a1.74,1.74,0,0,0-.58-2.52c-1.31-.67-3.64.57-4.57,1.49-.07.07-.92,1.14-1.12,1.42.1-1,.21-2,.37-3a29.82,29.82,0,0,1,.84-3.87,12.42,12.42,0,0,0,3.54.83,3.63,3.63,0,0,0,2.76-1.29,1.73,1.73,0,0,0-.58-2.52c-1.3-.67-3.64.57-4.57,1.49-.07.07-1,1.22-1.13,1.44,0-.08,0-.16,0-.23a22.47,22.47,0,0,1,1.54-3.66c.33-.66.69-1.26,1.05-1.84A11.84,11.84,0,0,0,89,423.73a3.64,3.64,0,0,0,2.89-1,1.73,1.73,0,0,0-.31-2.56c-1.22-.82-3.68.16-4.7,1-.06,0-.57.55-.94.93.16-.26.33-.53.49-.77.62-.93,1.23-1.73,1.79-2.45.32-.4.61-.76.89-1.09a11.79,11.79,0,0,0,3.5-.49,3.63,3.63,0,0,0,2.11-2.21A1.74,1.74,0,0,0,93.24,413c-1.46-.15-3.19,1.85-3.72,3,0,.11-.58,1.81-.56,1.8h0l-.88,1c-.57.7-1.2,1.5-1.84,2.42a29.51,29.51,0,0,0-1.91,3A22.89,22.89,0,0,0,82.72,428a.09.09,0,0,1,0,.05c0-.43,0-1.63,0-1.73-.17-1.29-1.26-3.71-2.7-4a1.73,1.73,0,0,0-2,1.63,3.63,3.63,0,0,0,1.39,2.72,12.33,12.33,0,0,0,3.29,1.5,31.26,31.26,0,0,0-1,4c-.14.79-.25,1.58-.36,2.38,0-.37,0-.7,0-.75-.17-1.3-1.26-3.71-2.7-4a1.73,1.73,0,0,0-2,1.63A3.59,3.59,0,0,0,78,434.14a11.53,11.53,0,0,0,3.19,1.48c0,.3-.08.61-.11.92-.18,1.47-.35,2.94-.56,4.37-.07.51-.16,1-.25,1.5,0-.33,0-.61,0-.65-.17-1.3-1.26-3.71-2.7-4a1.74,1.74,0,0,0-2,1.64A3.59,3.59,0,0,0,77,442.13a11,11,0,0,0,3.1,1.45c-.11.5-.22,1-.34,1.49-.1.33-.16.66-.28,1s-.2.65-.31,1c-.22.6-.44,1.23-.67,1.81-.16.41-.31.8-.47,1.19.08-.51.21-1.49.21-1.58a6.7,6.7,0,0,0-.9-3.28,2.42,2.42,0,0,0,0-.38,1.73,1.73,0,0,0-2.13-1.47c-1.41.37-2.31,2.86-2.38,4.17,0,.08,0,.92.09,1.45-.07-.31-.14-.61-.22-.92-.15-.63-.31-1.25-.49-1.92-.1-.32-.19-.65-.29-1s-.23-.66-.35-1c-.28-.77-.6-1.53-.94-2.29a11.63,11.63,0,0,0,3.27-1.23,3.6,3.6,0,0,0,1.59-2.6,1.72,1.72,0,0,0-1.87-1.78c-1.46.16-2.72,2.48-3,3.76,0,.08-.1,1-.14,1.54-.21-.45-.41-.91-.64-1.36-.65-1.32-1.35-2.63-2-3.93-.22-.4-.42-.81-.63-1.21a12,12,0,0,0,3.39-1.25,3.65,3.65,0,0,0,1.59-2.61,1.74,1.74,0,0,0-1.88-1.77c-1.45.16-2.72,2.48-3,3.76,0,.1-.15,1.45-.16,1.8-.46-.89-.91-1.77-1.32-2.66a31.27,31.27,0,0,1-1.43-3.7,12.1,12.1,0,0,0,3.41-1.26,3.6,3.6,0,0,0,1.59-2.6A1.73,1.73,0,0,0,67.45,423c-1.46.16-2.73,2.48-3,3.77,0,.1-.15,1.55-.16,1.82l-.07-.22a21.7,21.7,0,0,1-.74-3.9c-.09-.73-.12-1.43-.15-2.12a11.36,11.36,0,0,0,3.45-.86A3.65,3.65,0,0,0,68.66,419a1.74,1.74,0,0,0-1.67-2c-1.47,0-3,2.17-3.38,3.41,0,.07-.17.79-.27,1.31,0-.31,0-.63,0-.92,0-1.11.07-2.13.14-3,0-.51.1-1,.15-1.4a11.55,11.55,0,0,0,2.64-2.35,3.62,3.62,0,0,0,.55-3,1.74,1.74,0,0,0-2.39-1c-1.31.67-1.65,3.29-1.43,4.59,0,.11.51,1.82.53,1.81l0,0c-.06.41-.12.86-.17,1.34-.09.9-.18,1.92-.21,3a29.66,29.66,0,0,0,.09,3.6,23.15,23.15,0,0,0,.66,4l0,0c-.23-.36-.91-1.35-1-1.42-.86-1-3.1-2.4-4.45-1.83a1.74,1.74,0,0,0-.77,2.47A3.66,3.66,0,0,0,60.4,429.17Z" style="fill:#263238"></path><path d="M85.56,422.28s.47-1.71.48-1.82c.18-1.3-.23-3.91-1.55-4.55a1.74,1.74,0,0,0-2.36,1,3.62,3.62,0,0,0,.62,3A12.58,12.58,0,0,0,85.56,422.28Z" style="fill:#263238"></path><path d="M82.13,381.54c2.4,1,8.28.92,8.28.92s-1.26-3.85-1.37-4.08c-1.29-2.7-5.37-7.16-8.69-6.71a4,4,0,0,0-3.18,5C77.72,378.94,80.08,380.65,82.13,381.54Z" style="fill:#263238"></path><path d="M84.16,398.57c2.49.36,7.73-1.16,8.15-1.28a71.63,71.63,0,0,0,3.18,8.8c.72,1.67,1.5,3.33,2.31,5-.48-.7-.92-1.33-1-1.41-2-2.26-7.06-5.48-10.14-4.17a4,4,0,0,0-1.76,5.63c1.14,2.07,3.86,3.1,6.07,3.42s6.74-.88,7.93-1.22c.32.63.62,1.27.94,1.9,1.52,3,3.05,6,4.46,9,.49,1.06.94,2.12,1.4,3.18l-.85-1.22c-2-2.26-7.07-5.48-10.15-4.17A4,4,0,0,0,93,427.68c1.14,2.07,3.87,3.1,6.08,3.42s6.3-.77,7.71-1.16c.43,1.1.87,2.2,1.24,3.28.23.75.51,1.45.71,2.21s.42,1.49.62,2.23c.34,1.43.71,2.9,1,4.31.21,1,.4,1.91.59,2.85-.48-1.06-1.47-3.11-1.57-3.28-1.59-2.53-6.16-6.48-9.4-5.66a4,4,0,0,0-2.59,5.3c.81,2.22,3.35,3.65,5.49,4.3,2.35.72,7.56.06,8.21,0,.31,1.55.6,3.07.85,4.5.18,1.07.35,2.09.51,3.07h2.09c-.2-1.09-.42-2.24-.65-3.43-.31-1.58-.68-3.26-1.07-5a40.21,40.21,0,0,0,4.58-2.15c1.72,1.85,6.11,4,6.68,4.3-.6,1.47-1.2,2.9-1.78,4.23l-.9,2h2.2c.18-.42.35-.83.53-1.27.61-1.49,1.24-3.09,1.86-4.75.64.14,5.79,1.18,8.19.64,2.18-.49,4.82-1.72,5.79-3.88a4,4,0,0,0-2.18-5.47c-3.18-1.07-8,2.53-9.8,4.94-.1.14-1.07,1.81-1.66,2.87.25-.68.51-1.33.76-2,.5-1.38,1-2.77,1.47-4.27.22-.73.44-1.47.67-2.22s.39-1.54.59-2.32c.44-1.81.79-3.67,1.1-5.55,1.21.44,5.53,1.95,7.77,1.79s5-1,6.31-3a4,4,0,0,0-1.33-5.74c-3-1.54-8.32,1.29-10.44,3.4-.13.13-1.48,1.82-2.2,2.76.17-1.13.36-2.26.5-3.41.41-3.32.73-6.7,1-10.06.1-1,.22-2.06.32-3.08.43.16,5.53,2.05,8,1.88,2.23-.16,5-1,6.31-3a4,4,0,0,0-1.33-5.74c-3-1.54-8.31,1.29-10.43,3.4-.16.16-2.1,2.59-2.57,3.23.24-2.26.5-4.52.85-6.73a68.52,68.52,0,0,1,1.93-8.84c.2.08,5.51,2.08,8.08,1.9,2.22-.16,5-1,6.31-3a4,4,0,0,0-1.33-5.74c-3-1.54-8.31,1.29-10.43,3.4-.17.17-2.26,2.78-2.6,3.28.05-.17.08-.35.13-.51a50.66,50.66,0,0,1,3.51-8.37c.76-1.49,1.57-2.88,2.39-4.2.95.47,5.32,2.59,7.65,2.69s5.1-.42,6.6-2.25a4,4,0,0,0-.7-5.85c-2.79-1.86-8.4.37-10.74,2.23-.13.1-1.3,1.28-2.15,2.14.38-.59.76-1.21,1.13-1.77,1.4-2.11,2.82-3.95,4.08-5.58.73-.92,1.4-1.73,2-2.49,1.18,0,5.92-.16,8-1.14s4.33-2.72,4.82-5a4,4,0,0,0-3.31-4.88c-3.33-.36-7.29,4.21-8.5,6.94-.11.23-1.33,4.12-1.27,4.12h.07c-.63.72-1.29,1.49-2,2.36-1.3,1.6-2.76,3.42-4.21,5.5a71.56,71.56,0,0,0-4.37,7,52,52,0,0,0-3.73,8.4.38.38,0,0,1,0,.1c0-1,0-3.72-.05-3.93-.38-3-2.87-8.47-6.16-9.08a4,4,0,0,0-4.57,3.73c-.2,2.35,1.51,4.71,3.18,6.2,1.88,1.68,7.09,3.3,7.51,3.43a70.71,70.71,0,0,0-2.21,9.1c-.32,1.79-.58,3.6-.83,5.43,0-.85,0-1.61,0-1.72-.39-3-2.87-8.47-6.16-9.08a4,4,0,0,0-4.57,3.73c-.2,2.36,1.51,4.72,3.18,6.2s6.1,3,7.28,3.36c-.09.7-.18,1.4-.26,2.1-.41,3.36-.79,6.72-1.27,10-.17,1.15-.38,2.29-.58,3.42,0-.75,0-1.39,0-1.49-.39-3-2.87-8.47-6.17-9.07a4,4,0,0,0-4.57,3.72c-.19,2.36,1.52,4.72,3.18,6.21s5.68,2.83,7.08,3.29c-.25,1.15-.49,2.31-.78,3.42-.22.75-.37,1.49-.63,2.23s-.47,1.47-.71,2.2c-.5,1.38-1,2.81-1.53,4.15-.36.93-.72,1.81-1.08,2.7.18-1.15.49-3.4.49-3.59a15.38,15.38,0,0,0-2.06-7.49,4.25,4.25,0,0,0-.06-.87,4,4,0,0,0-4.84-3.37c-3.24.86-5.29,6.55-5.44,9.53,0,.18.1,2.1.2,3.31-.17-.7-.32-1.39-.49-2.11-.34-1.43-.72-2.85-1.13-4.38-.22-.73-.44-1.47-.67-2.21s-.52-1.51-.78-2.27c-.64-1.75-1.37-3.49-2.15-5.23,1.25-.3,5.68-1.43,7.46-2.79s3.66-3.59,3.64-5.95a4,4,0,0,0-4.28-4.06c-3.33.36-6.22,5.67-6.82,8.6,0,.18-.24,2.33-.33,3.51-.47-1-.94-2.08-1.46-3.12-1.48-3-3.08-6-4.67-9l-1.43-2.75c.45-.1,5.74-1.33,7.74-2.86,1.77-1.36,3.65-3.58,3.63-5.95a4,4,0,0,0-4.28-4.06c-3.33.37-6.22,5.67-6.82,8.6,0,.22-.32,3.31-.36,4.1-1.05-2-2.07-4-3-6.07a69.16,69.16,0,0,1-3.27-8.44c.21-.05,5.74-1.31,7.78-2.87,1.78-1.36,3.66-3.59,3.64-5.95a4,4,0,0,0-4.28-4.06c-3.33.36-6.22,5.67-6.82,8.6,0,.23-.35,3.55-.36,4.16,0-.17-.13-.33-.18-.5a51.78,51.78,0,0,1-1.69-8.91c-.19-1.67-.27-3.27-.32-4.83,1.06-.12,5.87-.77,7.86-2s4-3.16,4.27-5.52a4,4,0,0,0-3.81-4.5c-3.35,0-6.8,4.95-7.72,7.79-.06.16-.39,1.79-.62,3,0-.71,0-1.43,0-2.11,0-2.53.16-4.85.32-6.9.1-1.17.22-2.22.33-3.2,1-.67,4.84-3.4,6-5.36s2.12-4.66,1.25-6.86A4,4,0,0,0,93.3,355c-3,1.54-3.76,7.53-3.27,10.48,0,.25,1.17,4.16,1.22,4.13l.06,0c-.14.94-.26,2-.38,3.07-.21,2.05-.42,4.37-.48,6.92a72.28,72.28,0,0,0,.2,8.21,52,52,0,0,0,1.52,9.06l0,.1c-.52-.82-2.08-3.09-2.21-3.25-2-2.26-7.07-5.48-10.15-4.17a4,4,0,0,0-1.76,5.63C79.22,397.22,82,398.25,84.16,398.57Z" style="fill:#263238"></path><path d="M141.58,382.83c.06,0,1.07-3.9,1.11-4.16.41-3-.53-8.93-3.55-10.38a4,4,0,0,0-5.39,2.39c-.81,2.22.21,4.94,1.43,6.82C136.6,379.7,141.58,382.83,141.58,382.83Z" style="fill:#263238"></path></g><g id="freepik--heart-2--inject-29"><path d="M398,246.31l-32.6,32.6L241.25,403.14,117,279l-32.6-32.66A87.8,87.8,0,1,1,208.58,122.14l32.67,32.6,32.6-32.6A87.8,87.8,0,0,1,398,246.31Z" style="fill:none;stroke:#263238;stroke-linecap:round;stroke-linejoin:round"></path></g><g id="freepik--hearts-1--inject-29"><path d="M197.54,71.56l-2,2L188,81.13l-7.57-7.57-2-2A5.35,5.35,0,1,1,186,64l2,2,2-2a5.35,5.35,0,0,1,7.57,7.57Z" style="fill:#407BFF;stroke:#263238;stroke-linecap:round;stroke-linejoin:round"></path><path d="M309.83,128.43l-2,2L300.27,138l-7.58-7.58-2-2a5.36,5.36,0,0,1,3.79-9.14,5.3,5.3,0,0,1,3.78,1.57l2,2,2-2a5.35,5.35,0,0,1,7.57,0A5.35,5.35,0,0,1,309.83,128.43Z" style="fill:#407BFF;stroke:#263238;stroke-linecap:round;stroke-linejoin:round"></path><path d="M273.46,52.36l-1.31,1.31-5,5-5-5-1.31-1.31a3.52,3.52,0,0,1,2.49-6,3.49,3.49,0,0,1,2.49,1l1.31,1.31,1.31-1.31a3.52,3.52,0,1,1,5,5Z" style="fill:#407BFF;stroke:#263238;stroke-linecap:round;stroke-linejoin:round"></path><path d="M173.69,147.08l-1.31,1.31-5,5-5-5-1.31-1.31a3.52,3.52,0,0,1,5-5l1.31,1.31,1.31-1.31a3.52,3.52,0,0,1,5,5Z" style="fill:#407BFF;stroke:#263238;stroke-linecap:round;stroke-linejoin:round"></path><path d="M233.46,34.47l-1.3,1.31-5,5-5-5-1.31-1.31a3.52,3.52,0,0,1,5-5l1.31,1.31,1.3-1.31a3.52,3.52,0,1,1,5,5Z" style="fill:#407BFF;stroke:#263238;stroke-linecap:round;stroke-linejoin:round"></path></g><g id="freepik--Characters--inject-29"><path d="M241.08,303.18S228.67,343.35,224,364.32s-8.57,51.79-7.39,60.06,3.84,16.84,6.2,21,7.68,5,6.5,6.5-13.58,2.06-16.24.29-2.36-7.38-7.38-10.92l-5-3.55L200,452.14l-2.65-.29-.3-16.25s-1.77-5.61-.59-8.27,6.2-10,6.79-11.22S200,387.65,200,377.31s0-18.31,4.14-26,6.5-19.2,6.5-28.06-3.84-25.1-3.84-25.1Z" style="fill:#263238;stroke:#263238;stroke-linecap:round;stroke-linejoin:round"></path><path d="M208,175.3s5.31,47.26,3.84,56.41-14.18,33.37-12.41,49.62a295.69,295.69,0,0,0,5.91,33.07s-20.08-3.54-30.42-4.13-26.58-4.13-30.42-5.91-9.15-3.54-11.81-3.84-9.75-1.18-10-.29,1.47,2.07,2.36,2.07,8,2.95,8,2.95-8.27,11.22-8.86,14.77,1.48,17.72,3.55,18,5.31-10.63,6.2-11.52,8.86-8.27,11.52-8.56,20.67,6.5,21.85,6.79,42.23,12.11,47.26,12.4,12.4-1.18,14.17-4.72,15.36-78,15.36-78,6.2-41.94,6.5-53.75.59-20.38.59-20.38Z" style="fill:#263238;stroke:#263238;stroke-linecap:round;stroke-linejoin:round"></path><path d="M206.82,172.65s5.31,41.64,3.54,52.27S199.14,260.06,198.55,268s4.13,34.26,4.13,34.26,19.2,4.13,26.58,4.13a75.42,75.42,0,0,0,13.29-1.18s3.55-14.47,6.79-38.69,3.55-80.33,3.55-80.33l.29-8.86Z" style="fill:#407BFF;stroke:#263238;stroke-linecap:round;stroke-linejoin:round"></path><path d="M224.83,182.39s10.63,31,15.65,33.37,8-9.74,8-10.92S255.55,131,255.55,131a102.53,102.53,0,0,1-17.43,2.07c-10.18.39-12.4,2.66-19.49,4.73s-12.4,9.45-14.18,15.06S224.83,182.39,224.83,182.39Z" style="fill:#263238;stroke:#263238;stroke-linecap:round;stroke-linejoin:round"></path><path d="M294.23,434.34s-6.75,7.42-8.77,9.28a23.23,23.23,0,0,1-8.27,4.38c-2.19.51-4.89,1.52-4.55,3.55s5.22,2.7,5.22,2.7,17.72-.51,22.61-.85,19.06.68,20.24-.34-.33-12.65-.33-12.65Z" style="fill:#407BFF;stroke:#263238;stroke-linecap:round;stroke-linejoin:round"></path><path d="M321.1,448a282.66,282.66,0,0,1-30.25,2.52c-9.19.19-14.55-.32-17.54-.82a2,2,0,0,0-.67,1.84c.33,2,5.22,2.7,5.22,2.7s17.72-.51,22.61-.85,19.06.68,20.24-.34C321.2,452.65,321.23,450.46,321.1,448Z" style="fill:#fff;stroke:#263238;stroke-linecap:round;stroke-linejoin:round"></path><path d="M247.86,268.36s0,51.95,2.67,70.56,7.38,54.86,8.86,65.79a97.41,97.41,0,0,1,.29,21.26l-.88,4.73a103.57,103.57,0,0,1,15.06,4.43c7.68,2.95,9.74,2.95,9.74,2.95s.3-18.6.3-35.73-1.18-30.06-2.95-39.81-4.14-22.74-4.14-23.92,17.13,44.6,20.08,52.57,1.78,27.4,1.78,31.83a26,26,0,0,1-.6,6.5l6.5,3.24c2.95,1.48,15.06,4.73,15.06,4.73s1.48-56.64-2.36-69.93-12.11-34.25-14.18-39.87-7.39-33.34-7.39-36.59,3.25-7.38,4.43-15.65,1.48-12.11,1.48-12.11a169.32,169.32,0,0,0-31.3.3C253.47,265.41,247.86,268.36,247.86,268.36Z" style="fill:#263238;stroke:#263238;stroke-linecap:round;stroke-linejoin:round"></path><path d="M276.22,334.49s-.59-7.39-.3-9.16,13.58-41.91,13.58-41.91" style="fill:none;stroke:#fff;stroke-linecap:round;stroke-linejoin:round"></path><path d="M298.5,191.69s4.54,20.9,6.11,26.22-9.85,12-9.85,12S293.77,199,298.5,191.69Z" style="fill:#a8a8a8;stroke:#263238;stroke-linecap:round;stroke-linejoin:round"></path><path d="M251,144.77s11.32-8.8,16.67-11.48,8.64-.94,9.22-1.72,10.57,11.71,17.7,27.22,5.53,31.56,4.81,37.27-1.07,21.39-1.07,21.39l9.1,56.88s-20.33-1.61-36-.72S240,282.17,240,282.17a366.82,366.82,0,0,1,1.6-38.33c2-19.61,2-25.85,2-25.85l7.32-71.86Z" style="fill:#a8a8a8;stroke:#263238;stroke-linecap:round;stroke-linejoin:round"></path><path d="M266.59,240.45c-8.92,0-19.08,5.17-19.08,5.17l.35-5.7a29.49,29.49,0,0,1,16.05-5.71" style="fill:none;stroke:#263238;stroke-linecap:round;stroke-linejoin:round"></path><path d="M240.8,86.3S237,95,238,96.83s.67,4.84-1,7.52-3.68,3.17-2.68,4.51,2.34,2.84,2.34,2.84,3,15.53,4,17.37,7.85-.17,8.52-.34,2.67,8.86,2.67,8.86l22.89-9s-1.84-7.35-1.84-8,9.86-11.69,10.69-16.37,4.35-10.53-4.84-20.22-19.38-10.35-27.23-7.85S238.63,83.46,239.3,85,240.8,86.3,240.8,86.3Z" style="fill:#fff;stroke:#263238;stroke-linecap:round;stroke-linejoin:round"></path><path d="M251.49,76.11c-7.85,2.51-12.86,7.35-12.19,8.86.49,1.11,1.07,1.31,1.34,1.33h.16s5.68-4.17,5.85-2.67-4,7-2.18,8,6.52-.84,6.35,1.5-1,4,.34,4.35,2.17.83,3.67-1.51,9.19-5,8.35,3.34-4,10.19-4,10.19,3.68,6.69,8.69,9.36a10.31,10.31,0,0,0,5.15,1.38c1.19-1.88,9.78-11.73,10.55-16.08.84-4.68,4.35-10.53-4.84-20.22S259.34,73.61,251.49,76.11Z" style="fill:#263238;stroke:#263238;stroke-linecap:round;stroke-linejoin:round"></path><path d="M259.17,109.52s-.83,5.52-4.67,7.85" style="fill:none;stroke:#263238;stroke-linecap:round;stroke-linejoin:round"></path><path d="M239.46,96.66a2.75,2.75,0,0,1,3-2.34" style="fill:none;stroke:#263238;stroke-linecap:round;stroke-linejoin:round"></path><path d="M239.63,101.67s1,.34,2.34-1.5" style="fill:none;stroke:#263238;stroke-linecap:round;stroke-linejoin:round"></path><path d="M227.94,133.46s8.95,10.62,9.33,19.57-19.69-3.2-19.69-3.2-11.9-6.91-5-12.53S227.94,133.46,227.94,133.46Z" style="fill:#fff;stroke:#263238;stroke-linecap:round;stroke-linejoin:round"></path><path d="M229.09,140.75c-2.18-5.24-.39-8.44-.39-8.44s4-.38,5.5-.51,3.58,0,4-2.18.64-11.76.64-11.76,2.56-2.69,2.81-5.12-2.43-2-5.11-2.68-3.72-4.91-3.72-4.91.77-2.89-2.68-6.22-7.93-3.2-15.47,1.79-4.48,6.65-2.69,12.41,7.67,29.41,7.67,29.41" style="fill:#fff;stroke:#263238;stroke-linecap:round;stroke-linejoin:round"></path><path d="M215.53,100.72S224.36,134.23,225,146s-2.69,12.92-11.39,7.55-14.58-1.66-17.64.38-11.9-5.88-10.88-11.25,8.83-12.66,9-14.45-2.69-4.73.89-12.41S215.53,100.72,215.53,100.72Z" style="fill:#a8a8a8;stroke:#263238;stroke-linecap:round;stroke-linejoin:round"></path><path d="M217,133.66a26.05,26.05,0,0,1-.73,3.74" style="fill:none;stroke:#263238;stroke-linecap:round;stroke-linejoin:round"></path><path d="M213.22,105.71s4.55,13.51,4,25.18" style="fill:none;stroke:#263238;stroke-linecap:round;stroke-linejoin:round"></path><path d="M209.15,108.75s.21,1.83-.81,10.16" style="fill:none;stroke:#263238;stroke-linecap:round;stroke-linejoin:round"></path><path d="M232.29,108.78s-1.54,2.17-5,1.41" style="fill:none;stroke:#263238;stroke-linecap:round;stroke-linejoin:round"></path><path d="M229.86,103.15a4.39,4.39,0,0,0-4.48,2.69" style="fill:none;stroke:#263238;stroke-linecap:round;stroke-linejoin:round"></path><path d="M232.79,105.15s-.83-4.77-3.73-6-8.54-.33-14.3,3.51-16.62,14.71-20.71,25.58c0,0-4.22-.77-9.85-5.12s-1.41-19.82,7.29-27.37,19.95-9.46,25.32-8.56,13.56,2.55,16.63,7.8S232.79,105.15,232.79,105.15Z" style="fill:#263238;stroke:#263238;stroke-linecap:round;stroke-linejoin:round"></path><path d="M234.62,164s14.7-30.57,16.7-33.91,3.34-3.67,4.68-7.18,1.75-5.92,3.34-5.52c1.15.29,1.33,3.78.49,5.46s-.41,2-.41,2l6.77-1.83s5.85,2.84,7.52,3.68,3.51,3.84,3.17,4.84-3,.51-4.51.51S251,144.77,251,144.77s-3.34,44.44-4.18,47.11-5.18,3.84-7.51,3.51-14.87-6.18-14.87-6.18S227.94,173,229.61,170A28.67,28.67,0,0,1,234.62,164Z" style="fill:#fff;stroke:#263238;stroke-linecap:round;stroke-linejoin:round"></path><polyline points="274.79 128.03 267.22 125.5 260.14 127.73" style="fill:none;stroke:#263238;stroke-linecap:round;stroke-linejoin:round"></polyline><polyline points="275.77 129.54 267.52 128.55 261.82 130.53" style="fill:none;stroke:#263238;stroke-linecap:round;stroke-linejoin:round"></polyline><polyline points="263.66 133.1 268.81 130.53 276.46 130.6" style="fill:none;stroke:#263238;stroke-linecap:round;stroke-linejoin:round"></polyline><line x1="258.17" y1="125.23" x2="255.2" y2="126.99" style="fill:none;stroke:#263238;stroke-linecap:round;stroke-linejoin:round"></line><path d="M246.81,191.88c.42-1.32,1.44-12.87,2.37-24.2-5.29.19-11.72-3.78-13.84-5.2-.45,1-.72,1.5-.72,1.5a28.67,28.67,0,0,0-5,6c-1.67,3-5.18,19.21-5.18,19.21s12.53,5.84,14.87,6.18S246,194.55,246.81,191.88Z" style="fill:#407BFF;stroke:#263238;stroke-linecap:round;stroke-linejoin:round"></path><path d="M277.46,147.2a44.12,44.12,0,0,0-11.77-5.88c-7.66-2.68-16.76.53-17.47,3.21s-4.46,57.94-4.64,59.73-4.1,2-4.1,2.85a19.66,19.66,0,0,1-.35,2.67l-18.37,8.56s-2,12.3-1.6,14.09a27.84,27.84,0,0,0,2.32,5.35s17.47-3,23.89-3.93,17.11-3.56,18.18-6.06,10.7-44.22,11.06-53.13" style="fill:#a8a8a8;stroke:#263238;stroke-linecap:round;stroke-linejoin:round"></path><path d="M234.62,164s-2.17-3.51-3.68-3.84a18.15,18.15,0,0,0-3.67-.33c-.5,0-.67-1-2.17-1.51s-5.18-1.17-5.18-1.17-1.84-4.84-11.19-8.18-16.21,4.17-16.21,12.69,12,38.09,12,38.09-3.51,17.21-1.34,18.38a43.86,43.86,0,0,1,5.52,4s-4,.83-4,2.33a19.05,19.05,0,0,1-.84,4.18l-9,34.75s-5.51,11.52-4.68,12.53,9,8.68,10.86,8.35,12.36-20.05,15.87-31.07,6.52-49.62,6.52-49.62,4.84-29.06,6.84-31.9A67.77,67.77,0,0,0,234.62,164Z" style="fill:#263238;stroke:#263238;stroke-linecap:round;stroke-linejoin:round"></path><path d="M227.27,159.81s-11.53,10.85-15.87,24.05" style="fill:none;stroke:#fff;stroke-linecap:round;stroke-linejoin:round"></path><path d="M230.44,163.48a117.85,117.85,0,0,0-10,33.08" style="fill:none;stroke:#fff;stroke-linecap:round;stroke-linejoin:round"></path><path d="M209.73,219.94s1.67,6.18,4.17-11,7.19-34.25,9.36-38.42" style="fill:none;stroke:#fff;stroke-linecap:round;stroke-linejoin:round"></path><path d="M256.1,431.64s-4.38,5.4-7.59,7.42-15.86,7.43-15.86,8.94-1.68,2.7.51,3.71,11.3,1.86,27.33,2.7,24.29-.16,24.63-.84.34-9.11.34-9.95S256.1,431.64,256.1,431.64Z" style="fill:#407BFF;stroke:#263238;stroke-linecap:round;stroke-linejoin:round"></path><path d="M285.39,449.77A139.56,139.56,0,0,1,264,451.38c-10.66,0-25.33-1.81-31.5-2.63-.34,1.17-1.19,2.12.63,3,2.19,1,11.3,1.86,27.33,2.7s24.29-.16,24.63-.84A21.52,21.52,0,0,0,285.39,449.77Z" style="fill:#fff;stroke:#263238;stroke-linecap:round;stroke-linejoin:round"></path><polygon points="256.14 424.2 255.55 433.06 285.97 445.46 287.44 432.47 256.14 424.2" style="fill:#a8a8a8;stroke:#263238;stroke-linecap:round;stroke-linejoin:round"></polygon><path d="M296.93,424.39l-2.7,9.95a57.15,57.15,0,0,0,12.14,5.73c6.41,2,15.19,2.54,15.19,2.54l-.34-9.45S303.34,428.43,296.93,424.39Z" style="fill:#a8a8a8;stroke:#263238;stroke-linecap:round;stroke-linejoin:round"></path></g></svg>
