<svg xmlns="http://www.w3.org/2000/svg" viewBox="0 0 500 500"><g id="freepik--Plant--inject-8"><line x1="37.76" y1="155.44" x2="58.48" y2="353.98" style="fill:none;stroke:#263238;stroke-miterlimit:10;stroke-width:2px"></line><line x1="55.14" y1="315.98" x2="45.75" y2="306.06" style="fill:none;stroke:#263238;stroke-miterlimit:10;stroke-width:2px"></line><path d="M48.6,309a10.63,10.63,0,0,0-3.74-8c-2.41-2.15-15.1-7.49-16.3-3C27.25,302.9,40.24,312.45,48.6,309Z" style="fill:#D44E30;stroke:#263238;stroke-miterlimit:10"></path><line x1="48.6" y1="309.03" x2="36.52" y2="301.51" style="fill:none;stroke:#263238;stroke-miterlimit:10;stroke-width:0.5px"></line><line x1="57.5" y1="338.56" x2="48.1" y2="328.64" style="fill:none;stroke:#263238;stroke-miterlimit:10;stroke-width:2px"></line><path d="M51,331.61a10.63,10.63,0,0,0-3.74-8c-2.41-2.15-15.1-7.49-16.3-3C29.61,325.48,42.59,335,51,331.61Z" style="fill:#D44E30;stroke:#263238;stroke-miterlimit:10"></path><line x1="50.96" y1="331.61" x2="38.88" y2="324.08" style="fill:none;stroke:#263238;stroke-miterlimit:10;stroke-width:0.5px"></line><line x1="49.39" y1="260.88" x2="40" y2="250.96" style="fill:none;stroke:#263238;stroke-miterlimit:10;stroke-width:2px"></line><path d="M42.85,253.93a10.62,10.62,0,0,0-3.74-8c-2.41-2.16-15.1-7.49-16.3-3C21.5,247.81,34.49,257.35,42.85,253.93Z" style="fill:#D44E30;stroke:#263238;stroke-miterlimit:10"></path><line x1="42.85" y1="253.93" x2="30.77" y2="246.41" style="fill:none;stroke:#263238;stroke-miterlimit:10;stroke-width:0.5px"></line><line x1="51.75" y1="283.46" x2="42.35" y2="273.54" style="fill:none;stroke:#263238;stroke-miterlimit:10;stroke-width:2px"></line><path d="M45.21,276.51a10.62,10.62,0,0,0-3.74-8c-2.41-2.16-15.1-7.49-16.3-3C23.86,270.38,36.84,279.93,45.21,276.51Z" style="fill:#D44E30;stroke:#263238;stroke-miterlimit:10"></path><line x1="45.21" y1="276.51" x2="33.13" y2="268.99" style="fill:none;stroke:#263238;stroke-miterlimit:10;stroke-width:0.5px"></line><line x1="45.56" y1="224.2" x2="36.17" y2="214.28" style="fill:none;stroke:#263238;stroke-miterlimit:10;stroke-width:2px"></line><path d="M39,217.26a10.65,10.65,0,0,0-3.73-8c-2.42-2.15-15.1-7.49-16.31-3C17.67,211.13,30.66,220.67,39,217.26Z" style="fill:#D44E30;stroke:#263238;stroke-miterlimit:10"></path><line x1="39.02" y1="217.26" x2="26.94" y2="209.73" style="fill:none;stroke:#263238;stroke-miterlimit:10;stroke-width:0.5px"></line><line x1="41.72" y1="187.37" x2="32.32" y2="177.44" style="fill:none;stroke:#263238;stroke-miterlimit:10;stroke-width:2px"></line><path d="M35.18,180.42a10.63,10.63,0,0,0-3.74-8c-2.41-2.15-15.1-7.49-16.3-3C13.83,174.29,26.81,183.83,35.18,180.42Z" style="fill:#D44E30;stroke:#263238;stroke-miterlimit:10"></path><line x1="35.18" y1="180.42" x2="23.1" y2="172.89" style="fill:none;stroke:#263238;stroke-miterlimit:10;stroke-width:0.5px"></line><line x1="53.56" y1="302.62" x2="60.7" y2="290.97" style="fill:none;stroke:#263238;stroke-miterlimit:10;stroke-width:2px"></line><path d="M58.53,294.47a10.62,10.62,0,0,1,2-8.56c1.91-2.61,13.23-10.45,15.33-6.33C78.15,284.07,67.42,296.09,58.53,294.47Z" style="fill:#D44E30;stroke:#263238;stroke-miterlimit:10"></path><line x1="58.53" y1="294.47" x2="69.4" y2="284.08" style="fill:none;stroke:#263238;stroke-miterlimit:10;stroke-width:0.5px"></line><line x1="47.36" y1="243.2" x2="54.5" y2="231.56" style="fill:none;stroke:#263238;stroke-miterlimit:10;stroke-width:2px"></line><path d="M52.32,235.05a10.65,10.65,0,0,1,2-8.56c1.91-2.61,13.23-10.45,15.33-6.33C72,224.65,61.21,236.67,52.32,235.05Z" style="fill:#D44E30;stroke:#263238;stroke-miterlimit:10"></path><line x1="52.32" y1="235.05" x2="63.2" y2="224.66" style="fill:none;stroke:#263238;stroke-miterlimit:10;stroke-width:0.5px"></line><line x1="44.64" y1="217.09" x2="51.78" y2="205.45" style="fill:none;stroke:#263238;stroke-miterlimit:10;stroke-width:2px"></line><path d="M49.6,208.94a10.62,10.62,0,0,1,2-8.56c1.92-2.61,13.23-10.45,15.33-6.33C69.23,198.54,58.49,210.56,49.6,208.94Z" style="fill:#D44E30;stroke:#263238;stroke-miterlimit:10"></path><line x1="49.6" y1="208.94" x2="60.48" y2="198.55" style="fill:none;stroke:#263238;stroke-miterlimit:10;stroke-width:0.5px"></line><line x1="40.64" y1="178.81" x2="47.78" y2="167.16" style="fill:none;stroke:#263238;stroke-miterlimit:10;stroke-width:2px"></line><path d="M45.6,170.66a10.67,10.67,0,0,1,2-8.57c1.91-2.6,13.23-10.44,15.33-6.32C65.23,160.26,54.49,172.28,45.6,170.66Z" style="fill:#D44E30;stroke:#263238;stroke-miterlimit:10"></path><line x1="45.6" y1="170.66" x2="56.48" y2="160.27" style="fill:none;stroke:#263238;stroke-miterlimit:10;stroke-width:0.5px"></line><path d="M37.59,154.34a10.64,10.64,0,0,1,2-8.57c1.91-2.61,13.23-10.45,15.33-6.32C57.21,143.93,46.48,156,37.59,154.34Z" style="fill:#D44E30;stroke:#263238;stroke-miterlimit:10"></path><line x1="37.59" y1="154.34" x2="48.46" y2="143.94" style="fill:none;stroke:#263238;stroke-miterlimit:10;stroke-width:0.5px"></line><path d="M38.22,154.79a10.66,10.66,0,0,1-8.31-2.91c-2.39-2.17-9-14.25-4.68-15.9C29.93,134.18,40.76,146.11,38.22,154.79Z" style="fill:#D44E30;stroke:#263238;stroke-miterlimit:10"></path><line x1="38.22" y1="154.79" x2="29.02" y2="142.88" style="fill:none;stroke:#263238;stroke-miterlimit:10;stroke-width:0.5px"></line><line x1="92.41" y1="182.78" x2="72.18" y2="373.32" style="fill:none;stroke:#263238;stroke-miterlimit:10;stroke-width:2px"></line><line x1="76.36" y1="343.46" x2="69.21" y2="331.82" style="fill:none;stroke:#263238;stroke-miterlimit:10;stroke-width:2px"></line><path d="M71.39,335.32a10.64,10.64,0,0,0-2-8.57c-1.92-2.6-13.24-10.44-15.34-6.32C51.76,324.92,62.5,336.94,71.39,335.32Z" style="fill:#D44E30;stroke:#263238;stroke-miterlimit:10"></path><line x1="71.39" y1="335.32" x2="61.12" y2="325.46" style="fill:none;stroke:#263238;stroke-miterlimit:10;stroke-width:0.5px"></line><line x1="82.08" y1="288.36" x2="74.93" y2="276.72" style="fill:none;stroke:#263238;stroke-miterlimit:10;stroke-width:2px"></line><path d="M77.11,280.21a10.6,10.6,0,0,0-2-8.56c-1.91-2.61-13.23-10.44-15.33-6.32C57.48,269.82,68.22,281.84,77.11,280.21Z" style="fill:#D44E30;stroke:#263238;stroke-miterlimit:10"></path><line x1="77.11" y1="280.21" x2="66.84" y2="270.36" style="fill:none;stroke:#263238;stroke-miterlimit:10;stroke-width:0.5px"></line><line x1="79.74" y1="310.94" x2="72.59" y2="299.3" style="fill:none;stroke:#263238;stroke-miterlimit:10;stroke-width:2px"></line><path d="M74.77,302.8a10.67,10.67,0,0,0-2-8.57c-1.92-2.6-13.23-10.44-15.33-6.32C55.14,292.4,65.88,304.42,74.77,302.8Z" style="fill:#D44E30;stroke:#263238;stroke-miterlimit:10"></path><line x1="74.77" y1="302.8" x2="64.5" y2="292.94" style="fill:none;stroke:#263238;stroke-miterlimit:10;stroke-width:0.5px"></line><line x1="85.89" y1="251.68" x2="78.74" y2="240.04" style="fill:none;stroke:#263238;stroke-miterlimit:10;stroke-width:2px"></line><path d="M80.92,243.53a10.65,10.65,0,0,0-2-8.56c-1.92-2.61-13.23-10.44-15.33-6.32C61.28,233.14,72,245.15,80.92,243.53Z" style="fill:#D44E30;stroke:#263238;stroke-miterlimit:10"></path><line x1="80.92" y1="243.53" x2="70.65" y2="233.68" style="fill:none;stroke:#263238;stroke-miterlimit:10;stroke-width:0.5px"></line><line x1="89.71" y1="214.84" x2="82.56" y2="203.2" style="fill:none;stroke:#263238;stroke-miterlimit:10;stroke-width:2px"></line><path d="M84.74,206.69a10.6,10.6,0,0,0-2-8.56c-1.91-2.61-13.23-10.44-15.33-6.32C65.11,196.3,75.85,208.31,84.74,206.69Z" style="fill:#D44E30;stroke:#263238;stroke-miterlimit:10"></path><line x1="84.74" y1="206.69" x2="74.47" y2="196.84" style="fill:none;stroke:#263238;stroke-miterlimit:10;stroke-width:0.5px"></line><line x1="77.57" y1="330.06" x2="86.95" y2="320.14" style="fill:none;stroke:#263238;stroke-miterlimit:10;stroke-width:2px"></line><path d="M84.1,323.11a10.63,10.63,0,0,1,3.74-8c2.41-2.15,15.09-7.5,16.3-3C105.45,317,92.47,326.52,84.1,323.11Z" style="fill:#D44E30;stroke:#263238;stroke-miterlimit:10"></path><line x1="84.1" y1="323.11" x2="96.89" y2="315.18" style="fill:none;stroke:#263238;stroke-miterlimit:10;stroke-width:0.5px"></line><line x1="83.73" y1="270.64" x2="93.12" y2="260.72" style="fill:none;stroke:#263238;stroke-miterlimit:10;stroke-width:2px"></line><path d="M90.27,263.69a10.65,10.65,0,0,1,3.73-8c2.41-2.16,15.1-7.5,16.3-3C111.62,257.55,98.63,267.1,90.27,263.69Z" style="fill:#D44E30;stroke:#263238;stroke-miterlimit:10"></path><line x1="90.27" y1="263.69" x2="103.05" y2="255.76" style="fill:none;stroke:#263238;stroke-miterlimit:10;stroke-width:0.5px"></line><line x1="86.44" y1="244.53" x2="95.83" y2="234.6" style="fill:none;stroke:#263238;stroke-miterlimit:10;stroke-width:2px"></line><path d="M93,237.58a10.65,10.65,0,0,1,3.73-8c2.41-2.16,15.1-7.5,16.3-3C114.33,231.43,101.34,241,93,237.58Z" style="fill:#D44E30;stroke:#263238;stroke-miterlimit:10"></path><line x1="92.98" y1="237.58" x2="105.76" y2="229.64" style="fill:none;stroke:#263238;stroke-miterlimit:10;stroke-width:0.5px"></line><line x1="90.42" y1="206.25" x2="99.8" y2="196.32" style="fill:none;stroke:#263238;stroke-miterlimit:10;stroke-width:2px"></line><path d="M97,199.29a10.66,10.66,0,0,1,3.73-8c2.41-2.15,15.1-7.5,16.31-3C118.3,193.15,105.32,202.7,97,199.29Z" style="fill:#D44E30;stroke:#263238;stroke-miterlimit:10"></path><line x1="96.95" y1="199.29" x2="109.74" y2="191.36" style="fill:none;stroke:#263238;stroke-miterlimit:10;stroke-width:0.5px"></line><path d="M92.47,181.67a10.6,10.6,0,0,1,3.73-8c2.41-2.16,15.09-7.5,16.3-3C113.81,175.52,100.83,185.08,92.47,181.67Z" style="fill:#D44E30;stroke:#263238;stroke-miterlimit:10"></path><line x1="92.47" y1="181.67" x2="105.25" y2="173.73" style="fill:none;stroke:#263238;stroke-miterlimit:10;stroke-width:0.5px"></line><path d="M93,182.23a10.63,10.63,0,0,1-7.53-4.54c-1.89-2.63-5.88-15.8-1.31-16.53C89.12,160.36,97.26,174.27,93,182.23Z" style="fill:#D44E30;stroke:#263238;stroke-miterlimit:10"></path><line x1="92.99" y1="182.23" x2="86.44" y2="168.69" style="fill:none;stroke:#263238;stroke-miterlimit:10;stroke-width:0.5px"></line><line x1="68.8" y1="101.93" x2="68.8" y2="353.01" style="fill:none;stroke:#263238;stroke-miterlimit:10;stroke-width:2px"></line><line x1="69" y1="315.26" x2="60.69" y2="304.42" style="fill:none;stroke:#263238;stroke-miterlimit:10;stroke-width:2px"></line><path d="M63.22,307.67a10.64,10.64,0,0,0-2.89-8.31c-2.18-2.4-14.25-9-15.91-4.7C42.62,299.36,54.54,310.2,63.22,307.67Z" style="fill:#D44E30;stroke:#263238;stroke-miterlimit:10"></path><line x1="63.22" y1="307.67" x2="51.98" y2="298.93" style="fill:none;stroke:#263238;stroke-miterlimit:10;stroke-width:0.5px"></line><line x1="69" y1="268.07" x2="60.69" y2="257.23" style="fill:none;stroke:#263238;stroke-miterlimit:10;stroke-width:2px"></line><path d="M63.22,260.48a10.65,10.65,0,0,0-2.89-8.31c-2.18-2.39-14.25-9-15.91-4.7C42.62,252.17,54.54,263,63.22,260.48Z" style="fill:#D44E30;stroke:#263238;stroke-miterlimit:10"></path><line x1="63.22" y1="260.48" x2="51.98" y2="251.74" style="fill:none;stroke:#263238;stroke-miterlimit:10;stroke-width:0.5px"></line><line x1="69" y1="212.68" x2="60.69" y2="201.83" style="fill:none;stroke:#263238;stroke-miterlimit:10;stroke-width:2px"></line><path d="M63.22,205.09a10.67,10.67,0,0,0-2.89-8.32c-2.18-2.39-14.25-9-15.91-4.69C42.62,196.77,54.54,207.62,63.22,205.09Z" style="fill:#D44E30;stroke:#263238;stroke-miterlimit:10"></path><line x1="63.22" y1="205.09" x2="51.98" y2="196.35" style="fill:none;stroke:#263238;stroke-miterlimit:10;stroke-width:0.5px"></line><line x1="69" y1="175.8" x2="60.69" y2="164.96" style="fill:none;stroke:#263238;stroke-miterlimit:10;stroke-width:2px"></line><path d="M63.22,168.21a10.64,10.64,0,0,0-2.89-8.31c-2.18-2.4-14.25-9-15.91-4.7C42.62,159.9,54.54,170.74,63.22,168.21Z" style="fill:#D44E30;stroke:#263238;stroke-miterlimit:10"></path><line x1="63.22" y1="168.21" x2="51.98" y2="159.47" style="fill:none;stroke:#263238;stroke-miterlimit:10;stroke-width:0.5px"></line><line x1="69" y1="138.76" x2="60.69" y2="127.92" style="fill:none;stroke:#263238;stroke-miterlimit:10;stroke-width:2px"></line><path d="M63.22,131.17a10.64,10.64,0,0,0-2.89-8.31c-2.18-2.39-14.25-9-15.91-4.7C42.62,122.86,54.54,133.7,63.22,131.17Z" style="fill:#D44E30;stroke:#263238;stroke-miterlimit:10"></path><line x1="63.22" y1="131.17" x2="51.98" y2="122.43" style="fill:none;stroke:#263238;stroke-miterlimit:10;stroke-width:0.5px"></line><line x1="68.82" y1="329.67" x2="77.13" y2="318.82" style="fill:none;stroke:#263238;stroke-miterlimit:10;stroke-width:2px"></line><path d="M74.6,322.08a10.67,10.67,0,0,1,2.89-8.32c2.17-2.39,14.24-9,15.9-4.69C95.2,313.76,83.27,324.61,74.6,322.08Z" style="fill:#D44E30;stroke:#263238;stroke-miterlimit:10"></path><line x1="74.6" y1="322.08" x2="86.5" y2="312.86" style="fill:none;stroke:#263238;stroke-miterlimit:10;stroke-width:0.5px"></line><line x1="68.82" y1="254.62" x2="77.13" y2="243.78" style="fill:none;stroke:#263238;stroke-miterlimit:10;stroke-width:2px"></line><path d="M74.6,247a10.65,10.65,0,0,1,2.89-8.31c2.17-2.39,14.24-9,15.9-4.7C95.2,238.72,83.27,249.56,74.6,247Z" style="fill:#D44E30;stroke:#263238;stroke-miterlimit:10"></path><line x1="74.6" y1="247.03" x2="86.5" y2="237.82" style="fill:none;stroke:#263238;stroke-miterlimit:10;stroke-width:0.5px"></line><line x1="68.82" y1="217.58" x2="77.13" y2="206.74" style="fill:none;stroke:#263238;stroke-miterlimit:10;stroke-width:2px"></line><path d="M74.6,210a10.65,10.65,0,0,1,2.89-8.31c2.17-2.39,14.24-9,15.9-4.7C95.2,201.68,83.27,212.52,74.6,210Z" style="fill:#D44E30;stroke:#263238;stroke-miterlimit:10"></path><line x1="74.6" y1="209.99" x2="86.5" y2="200.78" style="fill:none;stroke:#263238;stroke-miterlimit:10;stroke-width:0.5px"></line><line x1="68.82" y1="168.63" x2="77.13" y2="157.79" style="fill:none;stroke:#263238;stroke-miterlimit:10;stroke-width:2px"></line><path d="M74.6,161a10.64,10.64,0,0,1,2.89-8.31c2.17-2.4,14.24-9,15.9-4.7C95.2,152.73,83.27,163.57,74.6,161Z" style="fill:#D44E30;stroke:#263238;stroke-miterlimit:10"></path><line x1="74.6" y1="161.04" x2="86.5" y2="151.83" style="fill:none;stroke:#263238;stroke-miterlimit:10;stroke-width:0.5px"></line><line x1="68.82" y1="130.14" x2="77.13" y2="119.3" style="fill:none;stroke:#263238;stroke-miterlimit:10;stroke-width:2px"></line><path d="M74.6,122.55a10.64,10.64,0,0,1,2.89-8.31c2.17-2.39,14.24-9,15.9-4.7C95.2,114.24,83.27,125.08,74.6,122.55Z" style="fill:#D44E30;stroke:#263238;stroke-miterlimit:10"></path><line x1="74.6" y1="122.55" x2="86.5" y2="113.34" style="fill:none;stroke:#263238;stroke-miterlimit:10;stroke-width:0.5px"></line><path d="M68.32,105.48a10.6,10.6,0,0,1,2.89-8.31c2.17-2.39,14.24-9,15.9-4.7C88.92,97.17,77,108,68.32,105.48Z" style="fill:#D44E30;stroke:#263238;stroke-miterlimit:10"></path><line x1="68.32" y1="105.48" x2="80.22" y2="96.27" style="fill:none;stroke:#263238;stroke-miterlimit:10;stroke-width:0.5px"></line><path d="M68.9,106a10.62,10.62,0,0,1-8-3.75c-2.15-2.41-7.47-15.1-3-16.3C62.79,84.63,72.32,97.63,68.9,106Z" style="fill:#D44E30;stroke:#263238;stroke-miterlimit:10"></path><line x1="68.9" y1="105.99" x2="60.99" y2="93.19" style="fill:none;stroke:#263238;stroke-miterlimit:10;stroke-width:0.5px"></line><polygon points="79.13 375.8 52.54 375.8 49.21 350.97 82.45 350.97 79.13 375.8" style="fill:#263238;stroke:#263238;stroke-miterlimit:10"></polygon></g><g id="freepik--Table--inject-8"><line x1="15.01" y1="375.77" x2="476.4" y2="375.77" style="fill:none;stroke:#263238;stroke-miterlimit:10"></line></g><g id="freepik--speech-bubble--inject-8"><path d="M396.09,53.33a62.46,62.46,0,0,0-58.69,83.83l-20.65,17.77L344,150.25a62.45,62.45,0,1,0,52.06-96.92Zm0,115.21a52.76,52.76,0,1,1,52.76-52.76A52.82,52.82,0,0,1,396.09,168.54Z" style="fill:#263238"></path><path d="M336.46,107.15s4.18,16,6.85,19.06,9.51,8.51,18.24,7.44,11.36-6.05,19.36-9.53,20.35-4.25,29.19-8.37S423.86,110.82,427,106s2.23-16.59,2.23-16.59Z" style="fill:#D44E30;stroke:#263238;stroke-miterlimit:10"></path><path d="M407,63.58c-1.8-.84-16.26-8.85-31.39-7.35s-28.35,15-31.6,26.48-10.26,20.43-6.13,27.82,11.83,18,19.59,18.61,17.77-11.23,21.36-12,18.94-6.85,28.49-7.59S434,101.34,428.9,87,412.12,66,407,63.58Z" style="fill:#fff;stroke:#263238;stroke-miterlimit:10"></path><path d="M368.18,64s-4.2,3.22-11.65,8.75S344.41,81,345.68,86.42s.14,6.87-2.29,10.38-1.81,9-.54,12.52S352,125.15,358.36,123s9.68-4.77,13.89-9.85,15.36-7.79,22.61-10.91S411,84.76,408.91,80s-4.58-9.31-12-14S380,60.26,377.76,60.44,368.18,64,368.18,64Z" style="fill:#D44E30;stroke:#263238;stroke-miterlimit:10"></path><path d="M413.84,78.28s-1,13-5.86,18.16,1.25,8.17,4.22,8.56,14.8-7.06,13.63-13.66-5.95-13.49-8.81-16S413.84,78.28,413.84,78.28Z" style="fill:#D44E30;stroke:#263238;stroke-miterlimit:10"></path><path d="M401.27,101.59a17.41,17.41,0,0,1-7.17,4.69c-4.56,1.55-13.39,3.82-10.7,5s18-3.79,20.63-5.07S402.85,101.51,401.27,101.59Z" style="fill:#D44E30;stroke:#263238;stroke-miterlimit:10"></path><path d="M346.41,104.77s.88-2.6,8.86-6.17,10.28-1.82,13.76-3.53,5.09-3.59,10.86-2.11,7.95,2.22,7.95,2.22" style="fill:none;stroke:#263238;stroke-miterlimit:10"></path><path d="M351.71,89.18s2-3.17,5.08-3.59S362.15,84,363.6,84s4.06-2,4.06-2l4.78-1.28" style="fill:none;stroke:#263238;stroke-miterlimit:10"></path><path d="M387.82,73.91s-8.09-1.78-10.27-1.07a28.4,28.4,0,0,1-6.08.83l-3.76-.31-5.36,1.56" style="fill:none;stroke:#263238;stroke-miterlimit:10"></path><path d="M352,112.47s6.53-3.58,9-3.71a8.48,8.48,0,0,0,4.65-2.28" style="fill:none;stroke:#263238;stroke-miterlimit:10"></path><path d="M456.25,114.47c-2.88-6.83-10.38-12-17.49-12.74-14.23-1.42-19.45,12.34-20.87,15.66s-6.64,14.71-8.07,18.51-7.12,10.44-8.54,12.81A54,54,0,0,1,397,154.4l-6.17,5.22s-2.77-1.2-4.59-.29-4.87,2.43-4,4.87,5.17,4.25,5.17,5.17-.91,2.73.61,4.56,4.57,2.41,6.09.59,1.52-3.33,1.82-4.85,2.13-6.08,2.44-7,13.68-10.95,13.68-10.95,11-4.56,16.13-6.38c11.91-4.21,23.56-6.66,28.39-20.08A14.52,14.52,0,0,0,456.25,114.47Z" style="fill:#D44E30;stroke:#263238;stroke-miterlimit:10"></path><path d="M386.25,159.33c-1.83.91-4.87,2.43-4,4.87s5.17,4.25,5.17,5.17-.91,2.73.61,4.56,4.57,2.41,6.09.59,1.52-3.33,1.82-4.85,2.13-6.08,2.44-7c.16-.48,4-3.56,7.62-6.33l.59-.66-1.83-2.44-1.21-.6c-1.22-.61,0,0-.61-1.83s-6,3.59-6,3.59l-6.17,5.22S388.07,158.42,386.25,159.33Z" style="fill:#fff;stroke:#263238;stroke-miterlimit:10"></path><path d="M386.93,165.19s2.73,1.64,2.37,2.37a6.92,6.92,0,0,0-2.19,4.38" style="fill:none;stroke:#263238;stroke-miterlimit:10"></path><path d="M433.36,108.62a1.84,1.84,0,1,1-1.81-1.53A1.69,1.69,0,0,1,433.36,108.62Z" style="fill:none;stroke:#263238;stroke-miterlimit:10"></path><ellipse cx="439.77" cy="108.76" rx="1.11" ry="1.39" style="fill:none;stroke:#263238;stroke-miterlimit:10"></ellipse><path d="M435.34,117.76c-.64.25-1.3.11-1.47-.32s.22-1,.86-1.24,1.3-.11,1.47.32S436,117.5,435.34,117.76Z" style="fill:none;stroke:#263238;stroke-miterlimit:10"></path><ellipse cx="421.24" cy="119.07" rx="1.25" ry="1.39" style="fill:none;stroke:#263238;stroke-miterlimit:10"></ellipse><ellipse cx="428.49" cy="123.53" rx="2.09" ry="1.39" style="fill:none;stroke:#263238;stroke-miterlimit:10"></ellipse><path d="M446.46,116.29a1.26,1.26,0,1,1-1.25-1.4A1.33,1.33,0,0,1,446.46,116.29Z" style="fill:none;stroke:#263238;stroke-miterlimit:10"></path><ellipse cx="426.12" cy="114.34" rx="1.25" ry="1.39" style="fill:none;stroke:#263238;stroke-miterlimit:10"></ellipse><ellipse cx="439.63" cy="124.92" rx="1.25" ry="0.84" style="fill:none;stroke:#263238;stroke-miterlimit:10"></ellipse><path d="M419.71,129.1a.84.84,0,1,1-.83-.83A.83.83,0,0,1,419.71,129.1Z" style="fill:none;stroke:#263238;stroke-miterlimit:10"></path><rect x="338.17" y="107.5" width="115.85" height="13.61" transform="translate(35.17 313.54) rotate(-45)" style="fill:#263238"></rect></g><g id="freepik--Character--inject-8"><path d="M402.9,347c-4.09-10.41-10.41-44.63-16-56.17s-12.28-23.06-14.14-31.24-9.3-30.87-24.92-40.92-61-33.85-66.58-36.45S216.54,180,216.54,180s-27.89,12.64-48.72,21.57S126.15,228,119.46,247.69a101.43,101.43,0,0,0-5.21,37.19s-10,19.72-11.16,36.46-12.65,42,1.12,49.84,299.81,0,299.81,0S407,357.42,402.9,347Zm-91.5,17.49,11.16-63.24c3,10,20.83,40.55,20.83,40.55l1.86,19Z" style="fill:#c9c9c9;stroke:#263238;stroke-miterlimit:10"></path><path d="M309.89,373.3l1.51-8.81,11.16-63.24c1.09,3.68,4.19,10.12,7.67,16.8,8.21-7,33.17-25.3,60.27-17.37a73,73,0,0,0-3.59-9.85c-5.58-11.53-12.28-23.06-14.14-31.24s-9.3-30.87-24.92-40.92-61-33.85-66.58-36.45S216.54,180,216.54,180s-27.89,12.64-48.72,21.57S126.15,228,119.46,247.69a101.43,101.43,0,0,0-5.21,37.19,134.12,134.12,0,0,0-8.86,23.37c6.26-1.05,15.48-.38,28.58,5.28,30.13,13,31.24,16,31.24,16l1.68,45.06C208.36,374.89,263.32,374.16,309.89,373.3Z" style="fill:#D44E30;stroke:#263238;stroke-miterlimit:10"></path><path d="M151.76,266.43c4.6,15.64,12.49,40.67,18.05,48.78" style="fill:none;stroke:#263238;stroke-miterlimit:10"></path><path d="M148,253.31s.65,2.39,1.75,6.26" style="fill:none;stroke:#263238;stroke-miterlimit:10"></path><path d="M141.8,273.37s10,10.72,15.91,13.14" style="fill:none;stroke:#263238;stroke-miterlimit:10"></path><path d="M322.56,301.25s5.48-33.9,5.48-39.94" style="fill:none;stroke:#263238;stroke-miterlimit:10"></path><path d="M252.63,263.58c-1.72,2.15-3.51,4.26-5.35,6.33" style="fill:none;stroke:#263238;stroke-miterlimit:10"></path><path d="M284.28,210.08a247.6,247.6,0,0,1-28.55,49.54" style="fill:none;stroke:#263238;stroke-miterlimit:10"></path><path d="M247,239.25a58.17,58.17,0,0,0,17.18-2.32" style="fill:none;stroke:#263238;stroke-miterlimit:10"></path><path d="M203.88,197.5s2.9,21.46,18.56,33.63a38.25,38.25,0,0,0,17.41,7.47" style="fill:none;stroke:#263238;stroke-miterlimit:10"></path><path d="M285.65,189.38s2.9,4.64,1.74,14.5" style="fill:none;stroke:#263238;stroke-miterlimit:10"></path><path d="M250.65,328.82c-2.44,2.26-4.84,4.31-7.18,6.1" style="fill:none;stroke:#263238;stroke-miterlimit:10"></path><path d="M310.22,252.62s-28.7,45.28-54.8,71.59" style="fill:none;stroke:#263238;stroke-miterlimit:10"></path><path d="M291.89,274.06s-31.13,37-61.56,49.79" style="fill:none;stroke:#263238;stroke-miterlimit:10"></path><path d="M326.47,277.52S341.69,262,351.71,257.8" style="fill:none;stroke:#263238;stroke-miterlimit:10"></path><path d="M341,259.19A51.25,51.25,0,0,0,327.51,273" style="fill:none;stroke:#263238;stroke-miterlimit:10"></path><path d="M357.68,335s-5.18,0-19,4.89-34,11.23-61.88,18.42-59,10.65-63.31,11.23-21.3-3.74-26.48-5.47-13-4-14.39-2.59-21.3,20.72-24.17,25-3.75,6.9-1.16,7.77,20.15-1.15,20.15-1.15,19.86,5.75,34.54,6.33,30.21-3.17,30.21-3.17,65.62-2.3,90.95-2.3,63.89-9.79,69.07-9.79,9.21-2,10.36-6,5.93-11.89.32-31.15c-2.13-7.34-4.06-12.85-4.06-12.85" style="fill:#c9c9c9;stroke:#263238;stroke-miterlimit:10"></path><path d="M212.66,172.62s-1.68,21.84,2.69,35.62,16.12,22.84,35.27,22.84,28.89-18.14,29.9-26.88.34-27.88.34-27.88Z" style="fill:#c9c9c9;stroke:#263238;stroke-miterlimit:10"></path><path d="M200.63,121.29s-5.58-3.27-8.85,3.27,4,19.41,6.54,22.48,6,6.73,6,6.73Z" style="fill:#c9c9c9;stroke:#263238;stroke-miterlimit:10"></path><path d="M289.36,121.29s5.57-3.27,8.84,3.27-4,19.41-6.54,22.48-6,6.73-6,6.73Z" style="fill:#c9c9c9;stroke:#263238;stroke-miterlimit:10"></path><path d="M196.73,84.81s3.87,46.81,6.56,62.91,3.28,25,7.45,34.58,17.89,23.55,23.85,26.83,23.56,2.09,27.73-1.49,17.89-16.1,21.17-27.72,7.15-64.1,7.15-71.86,1.79-28.62-4.17-37-32.2-18.78-48.3-16.69S203,64.24,199.71,69,196.73,84.81,196.73,84.81Z" style="fill:#c9c9c9;stroke:#263238;stroke-miterlimit:10"></path><path d="M238.17,54.4C222.07,56.49,203,64.24,199.71,69s-3,15.8-3,15.8,2.27,27.42,4.54,47.5c.89.31,2,.26,2.32-1.59.59-3.28-.6-5.36,2.08-7.45s6.26-3.88,6.56-9.54-3.28-19.08.6-20.27,17.59,6.26,30.11,7.75S276,90.47,279.31,96.44s.9,18.48,2.39,22.66a47.26,47.26,0,0,0,4.47,8.64s0,7.45,2.09,7.16c.23,0,.47-.09.7-.15,1-12.52,1.68-23.47,1.68-26.69,0-7.75,1.79-28.62-4.17-37S254.27,52.31,238.17,54.4Z" style="fill:#263238;stroke:#263238;stroke-miterlimit:10"></path><path d="M245.1,179.37s-7.07-1.06-9.76-.87-7.89-3.18-10.12-.62a8,8,0,0,0-1.53,5.48,22.4,22.4,0,0,1,.19,2.89s1.34-7,3.26-6.83,9.62,4.91,15.19,5.67a51.12,51.12,0,0,0,15.76-.76c3.65-.77,8.75-5.23,10.1-4.27s1.43,11.38,1.43,8.88,1.07-10.61-.28-11.95-17.43,2.27-19,2.27S245.1,179.37,245.1,179.37Z" style="fill:#263238;stroke:#263238;stroke-miterlimit:10"></path><path d="M241.18,193a26.68,26.68,0,0,0,11.53-.19" style="fill:none;stroke:#263238;stroke-miterlimit:10"></path><path d="M289.23,131.28h0c-.19.77-1.34,8.46-2.5,15.19a86.93,86.93,0,0,1-8.07,23.44c-3.84,7.31-4.8,17.11-6.53,18.07a6.15,6.15,0,0,1-2.5,1s-3.27,5.19-3.84,6.53-5.19,6.54-18.45,7.11-18.07-6.72-19.61-9a76.33,76.33,0,0,1-3.84-7.3,2.4,2.4,0,0,1-3.08-.77c-1.53-1.73-5.38-12.88-10.57-22.29s-8.07-29.41-8.07-29.41l-.36,3.08c.51,4.28,1,8,1.49,10.86,2.68,16.1,3.28,25,7.45,34.58s17.89,23.55,23.85,26.83,23.56,2.09,27.73-1.49,17.89-16.1,21.17-27.72C285.53,172.67,287.81,149.55,289.23,131.28Z" style="fill:#263238;stroke:#263238;stroke-miterlimit:10"></path><path d="M236,169.53s-2.12,4,.19,6.34a17.65,17.65,0,0,0,9,4.61c3.65.77,8.46-2.3,9.42-2.69s3.27-2.5,3.27-4.23a13.52,13.52,0,0,0-.77-3.84" style="fill:#c9c9c9;stroke:#263238;stroke-miterlimit:10"></path><path d="M218.31,147s1.53,3.08,8.64,4.42,9.42-1.15,9.42-1.15-4.61,3.46-9,3.46S219.84,151.08,218.31,147Z" style="fill:#263238;stroke:#263238;stroke-miterlimit:10"></path><path d="M274.62,147s-1.54,3.08-8.65,4.42-9.42-1.15-9.42-1.15,4.61,3.46,9,3.46S273.08,151.08,274.62,147Z" style="fill:#263238;stroke:#263238;stroke-miterlimit:10"></path><path d="M236.2,139.24s-.49-.91-7-2.08-17.45,1.3-16.75,2.37,13.5-.43,15.54.49,10.57,2.62,10.49.3S236.2,139.24,236.2,139.24Z" style="fill:#263238;stroke:#263238;stroke-miterlimit:10"></path><path d="M256.33,139.24s.5-.91,7-2.08,17.46,1.3,16.75,2.37-13.49-.43-15.54.49-10.56,2.62-10.48.3S256.33,139.24,256.33,139.24Z" style="fill:#263238;stroke:#263238;stroke-miterlimit:10"></path><path d="M147.61,334l-11.06,5.53c-2.88,1.44-11.06-1.2-21.39,2.16S98.33,354,97.37,360.46s-1.21,12.74,2.88,19.71S117.8,396,121.41,398.44s7,5.53,11.78,3.85,16.59-8.66,23.8-16.59,23.56-19.95,26-26-8.41-20.92-15.38-26S153.38,331.37,147.61,334Z" style="fill:#c9c9c9;stroke:#263238;stroke-miterlimit:10"></path><path d="M164,364.3s-10.82-9.37-13.94-13a9.74,9.74,0,0,1-2.17-7.93s-1.92-1.2-4.08-6,1.2-10.34,1.44-11.06-1.44-1.68-3.13-2.89-1.44-5.29.24-8.89,9.86-9.62,9.86-9.62,15.87.48,20.92-1,9.37-3.13,10.81-.72,2.65,8.41,4.09,13.7,4.09,20.92.72,30.78-7.21,16.58-11.06,18.51l-3.84,1.92" style="fill:#c9c9c9;stroke:#263238;stroke-miterlimit:10"></path><path d="M155.31,352.52s13.46.72,21.87-.24,17.31-8.17,18.51-11.06-2.64-2.4-2.64-2.4-19.23,2.4-21.16,2.4-18.27-1.68-18.27-1.68" style="fill:#c9c9c9;stroke:#263238;stroke-miterlimit:10"></path><path d="M148.81,340.74a127.49,127.49,0,0,0,25,2.41c14.18,0,21.15-2.41,23.56-3.61s2.88-2.64-.24-4.33-24-4.32-27.17-4.56-17.55-5-17.55-5" style="fill:#c9c9c9;stroke:#263238;stroke-miterlimit:10"></path><path d="M146.89,325.36s14.18,7,20.68,8.41,25.72,1.2,29.57,1.44,4.56-1,2.16-5-7.21-5.05-10.58-5.53-21.15-4.33-21.15-4.33-13.47-6.73-14.19-7" style="fill:#c9c9c9;stroke:#263238;stroke-miterlimit:10"></path><path d="M234.19,370.85a.55.55,0,0,1,.15-.75.53.53,0,0,1,.75.15l19.52,29.35.77-.48-18.48-29.3a.54.54,0,1,1,.91-.58l18.49,29.32.55-.34L239,368.76a.53.53,0,0,1,.18-.74.54.54,0,0,1,.74.19l17.85,29.45.67-.42s-19.95-35.82-23.32-37.74-15.44-.68-20-2.84-41.77-49.82-41.77-49.82l-2.65,2.41S208.2,355.41,212.28,359s9.38,2.65,12.26,4.09,27.65,38,27.65,38l1.5-.93Z" style="fill:#fff;stroke:#263238;stroke-miterlimit:10"></path><path d="M164.54,292.43a7.55,7.55,0,0,0-8.2-1.62,9.38,9.38,0,0,0-4.88,4.74c-2.89,6.25-.24,10.09,1.2,11.05s9.62,7.46,15.63,11.3,11.54,8.9,15.38,7.94,3.13-7,1.45-10.34-7.46-10.34-15.39-18Z" style="fill:#c9c9c9;stroke:#263238;stroke-miterlimit:10"></path><path d="M180.55,284s-10.34.48-11.06,3.36,4.33,15.15,7.93,19.23,11.78,3.37,13,1-2.89-13.71-4.57-18.76S182.23,283.77,180.55,284Z" style="fill:#c9c9c9;stroke:#263238;stroke-miterlimit:10"></path></g><g id="freepik--Food--inject-8"><ellipse cx="240.92" cy="440.33" rx="107.57" ry="45.71" style="fill:#263238;stroke:#263238;stroke-miterlimit:10"></ellipse><ellipse cx="240.92" cy="436.64" rx="110.22" ry="45.71" style="fill:#fff;stroke:#263238;stroke-miterlimit:10"></ellipse><ellipse cx="240.92" cy="432.95" rx="110.22" ry="45.71" style="fill:#fff;stroke:#263238;stroke-miterlimit:10"></ellipse><path d="M213.09,394.7s2.86-2.86,4.45-3.18,3.19,1,4.14.32.32-1.91,2.55-2.23,2.38-.48,4.53.24,3.42-1.83,5.65-1.2a8.84,8.84,0,0,1,3.82,2.55s1.27-1.91,2.86-1.27l1.59.63s.64-1.91,5.41-1.91,7,1.6,7,1.6a10.18,10.18,0,0,1,7.28,2.77c.76-.47,1.67-.85,4.36-.45,1.79.27,2.36,1.49,3.31,1.49a16.71,16.71,0,0,1,3.5,1l1.28,2.23s1.59-1.91,3.5-.64l1.91,1.27s.32-.95,2.54.64,2.87,2.23,2.87,3.5,2.48,5,2.48,5l.07,2.56s-10.19,4.22-9.55,5.82-3.88,3.18-3.37,5.09-4.21,4-4.21,4l-9.37,3.62-8.91,2-4.06,1.26-12.41-.62-2.86-2.88-4-1.24L224.86,424l-2.54-2.23L219.14,416l-1.28-3.82S210.86,397.25,213.09,394.7Z" style="fill:#fff;stroke:#263238;stroke-miterlimit:10"></path><path d="M244.59,412.52s0-2.86,1.91-3.18a5.63,5.63,0,0,1,3.5.64,6.16,6.16,0,0,1,2.23-3.19,8.63,8.63,0,0,1,3.82-1s-.32-2.87,1.27-3.5a20.77,20.77,0,0,1,3.19-1s.95-3.18,1.91-3.18h.95a3.71,3.71,0,0,1,3.5-.95,18.73,18.73,0,0,1,3.5,1.59l2.55,1.27a4,4,0,0,1,3.5,0l1.59,1s2.55-1.28,3.82-.32" style="fill:none;stroke:#263238;stroke-miterlimit:10"></path><path d="M222.32,404.25s2.54-4.14,4.13-3.5,0,.95,1.6.63,2.22-3.5,3.81-3.18a11.77,11.77,0,0,1,3.19,1.27s.63-2.86,2.54-1.91l1.91,1a3,3,0,0,1,3.5,0l1.91,1.27h0l2.55,1.91h0a3.52,3.52,0,0,1,2.86,1c1.59,1.27,1.91,4.13,1.91,4.13" style="fill:none;stroke:#263238;stroke-miterlimit:10"></path><path d="M203,382.71s14.57,14.58,19.87,25.84.66,24.5-6.62,29.14-19.87,7.28-32.45-6.63-5.37-26.91,1.29-38.95S195.1,376.75,203,382.71Z" style="fill:#fff;stroke:#263238;stroke-miterlimit:10"></path><path d="M197.08,402.58s9.94-2.64,15.9,5.3,0,14.57-6.63,15.9-11.25-2.65-13.9-7.29S190.46,403.25,197.08,402.58Z" style="fill:#878787;stroke:#263238;stroke-miterlimit:10"></path><path d="M194,380.46l-.43.71s-13.69,19.16-11.87,31.94,7.3,21.45,17.8,25.56c2.76,1.08,5.22,1.9,7.37,2.53-6.72.94-14.88-1.11-23-10.14-12.59-13.9-5.37-26.91,1.29-38.95C188.63,385.78,191.2,381.89,194,380.46Z" style="fill:#D44E30;stroke:#263238;stroke-miterlimit:10"></path><path d="M328.73,421.3a45.57,45.57,0,0,0-8.25,3.4c-5.3,2.66-11.54,9.95-6.54,14.74s19.24-6.27,20.38-10S336.32,420.09,328.73,421.3Z" style="fill:#fff;stroke:#263238;stroke-miterlimit:10"></path><path d="M335,424.77a4.84,4.84,0,0,0-.38-1.54l-1.23-1.1s-18.55,11.29-16.36,12.68C319.09,436.09,331.36,427.41,335,424.77Z" style="fill:#fff;stroke:#263238;stroke-miterlimit:10"></path><path d="M283.5,408.73a46.4,46.4,0,0,0-8.24,3.41c-5.31,2.66-11.54,9.95-6.54,14.73s19.24-6.26,20.38-10S291.1,407.53,283.5,408.73Z" style="fill:#fff;stroke:#263238;stroke-miterlimit:10"></path><path d="M289.81,412.21a4.58,4.58,0,0,0-.37-1.54l-1.24-1.1s-18.54,11.29-16.35,12.68C273.87,423.53,286.14,414.85,289.81,412.21Z" style="fill:#fff;stroke:#263238;stroke-miterlimit:10"></path><path d="M331.33,423.58a34.58,34.58,0,0,0-2.47-7.94c-2.13-5.15-9.49-11.65-16-7.56s3.78,18.33,7.88,19.77S331.34,430.68,331.33,423.58Z" style="fill:#fff;stroke:#263238;stroke-miterlimit:10"></path><path d="M326.12,429a7,7,0,0,0,1.86-.19l1.52-1s-9.78-18.23-11.8-16.37C315.83,413.16,323.71,425.35,326.12,429Z" style="fill:#fff;stroke:#263238;stroke-miterlimit:10"></path><path d="M294.92,425.62a34,34,0,0,0-2.46-7.94c-2.13-5.15-9.49-11.65-16-7.57s3.79,18.34,7.89,19.78S294.94,432.72,294.92,425.62Z" style="fill:#fff;stroke:#263238;stroke-miterlimit:10"></path><path d="M289.72,431a7.08,7.08,0,0,0,1.86-.18l1.51-1s-9.77-18.23-11.8-16.36C279.43,415.2,287.31,427.39,289.72,431Z" style="fill:#fff;stroke:#263238;stroke-miterlimit:10"></path><path d="M309.9,401.14a46.61,46.61,0,0,0-8.61-2.33c-5.83-1.13-15.21.85-14.17,7.68s19.07,6.78,22.23,4.55S316.65,404.82,309.9,401.14Z" style="fill:#fff;stroke:#263238;stroke-miterlimit:10"></path><path d="M312.78,407.75a4.77,4.77,0,0,0,.64-1.45l-.3-1.63s-21.59-2.37-20.7.07C293.24,407,308.26,407.6,312.78,407.75Z" style="fill:#fff;stroke:#263238;stroke-miterlimit:10"></path><path d="M316.6,424.17a46.61,46.61,0,0,0-8.61-2.33c-5.83-1.13-15.21.85-14.17,7.68s19.07,6.78,22.23,4.55S323.35,427.85,316.6,424.17Z" style="fill:#fff;stroke:#263238;stroke-miterlimit:10"></path><path d="M319.48,430.78a4.77,4.77,0,0,0,.64-1.45l-.3-1.63s-21.59-2.37-20.7.07C299.94,430,315,430.63,319.48,430.78Z" style="fill:#fff;stroke:#263238;stroke-miterlimit:10"></path><path d="M327.49,404.08a46,46,0,0,0-8.61-2.34c-5.83-1.12-15.22.85-14.17,7.69s19.07,6.77,22.22,4.54S334.24,407.75,327.49,404.08Z" style="fill:#fff;stroke:#263238;stroke-miterlimit:10"></path><path d="M330.37,410.68a4.77,4.77,0,0,0,.64-1.45l-.3-1.63s-21.59-2.37-20.7.07C310.83,409.92,325.85,410.53,330.37,410.68Z" style="fill:#fff;stroke:#263238;stroke-miterlimit:10"></path><path d="M307.69,406.17A55.13,55.13,0,0,0,297.3,408c-6.81,1.7-15.88,8.51-11.34,15.31S309.77,421,312,417.05,316.76,406.74,307.69,406.17Z" style="fill:#fff;stroke:#263238;stroke-miterlimit:10"></path><path d="M314.08,411.81a5.56,5.56,0,0,0,0-1.87l-1.14-1.6s-24.31,8.25-22.14,10.42C292.76,420.76,309.16,413.91,314.08,411.81Z" style="fill:#fff;stroke:#263238;stroke-miterlimit:10"></path><path d="M317.83,425.47a55.16,55.16,0,0,0-2.65-10.21c-2.26-6.64-9.78-15.12-16.19-10.05s4.21,23.55,8.35,25.49S318,434.56,317.83,425.47Z" style="fill:#fff;stroke:#263238;stroke-miterlimit:10"></path><path d="M312.74,432.3a6,6,0,0,0,1.86-.19l1.49-1.27s-10.21-23.55-12.19-21.21C302.07,411.79,310.24,427.56,312.74,432.3Z" style="fill:#fff;stroke:#263238;stroke-miterlimit:10"></path><path d="M288.13,407a45.61,45.61,0,0,0-8.61-2.33c-5.83-1.13-15.22.84-14.17,7.68s19.07,6.78,22.22,4.54S294.88,410.69,288.13,407Z" style="fill:#fff;stroke:#263238;stroke-miterlimit:10"></path><path d="M291,413.61a4.77,4.77,0,0,0,.64-1.45l-.3-1.63s-21.59-2.37-20.7.07C271.47,412.85,286.49,413.46,291,413.61Z" style="fill:#fff;stroke:#263238;stroke-miterlimit:10"></path><path d="M219,431s6.46,10.44,12.92,10.94,6,1.49,9.94.49,6.46-1,9.44-3l3-2a73,73,0,0,1-16.4-3C230.42,432,219,431,219,431Z" style="fill:#D44E30;stroke:#263238;stroke-miterlimit:10"></path><path d="M250.8,446.94s11.43-8.45,17.39-9.94a55.59,55.59,0,0,1,11.93-1.5s-4.47,7.46-12.92,9.94A45.12,45.12,0,0,1,250.8,446.94Z" style="fill:#D44E30;stroke:#263238;stroke-miterlimit:10"></path><path d="M241.85,431.53a20.35,20.35,0,0,0-4.47-6,127.27,127.27,0,0,1-8.95-10.93s-2,8.95,1,11.93S241.85,431.53,241.85,431.53Z" style="fill:#D44E30;stroke:#263238;stroke-miterlimit:10"></path><path d="M241.85,431.53s3.48-5,8-6a94.53,94.53,0,0,1,9.94-1.49,30.19,30.19,0,0,1-7,5C248.81,431,241.85,431.53,241.85,431.53Z" style="fill:#D44E30;stroke:#263238;stroke-miterlimit:10"></path><path d="M239.37,449.42a75.43,75.43,0,0,0-9,.5c-3,.49-13.92,3-13.92,3s7.46,3.48,13.92,2.48A12.31,12.31,0,0,0,239.37,449.42Z" style="fill:#D44E30;stroke:#263238;stroke-miterlimit:10"></path><path d="M273.66,430.53s-9.44-2.48-13.92-.49-10.43,5.46-10.43,5.46S268.69,435,273.66,430.53Z" style="fill:#D44E30;stroke:#263238;stroke-miterlimit:10"></path><path d="M245.33,445.44a27.88,27.88,0,0,0-9-3,36.13,36.13,0,0,0-9.44.5,45.05,45.05,0,0,1,8.45,4C239.37,449.42,245.33,445.44,245.33,445.44Z" style="fill:#D44E30;stroke:#263238;stroke-miterlimit:10"></path><path d="M257.88,426.34a53.63,53.63,0,0,1,6.83-5.25c4.48-3,12.43-3.48,12.43-3.48s-2.49,6.46-4.47,8.95-8.45,4-11.44,4.47-1,1,3,3.48S274.65,444,274.65,444s-6.95.5-11.43-1-8-2-8.94-6-1.49-5.47-1.49-7S257.88,426.34,257.88,426.34Z" style="fill:#D44E30;stroke:#263238;stroke-miterlimit:10"></path><path d="M254.28,437s-8.45,0-9.94,3-3,9.94-3,9.94a76.78,76.78,0,0,0,8.45-5C253.28,442.46,254.28,437,254.28,437Z" style="fill:#D44E30;stroke:#263238;stroke-miterlimit:10"></path><path d="M257.76,440s-2.49,7.95,0,12.42a40.13,40.13,0,0,0,6,8l5-.49s-3.48-9.94-4.47-13.42S257.76,440,257.76,440Z" style="fill:#D44E30;stroke:#263238;stroke-miterlimit:10"></path><path d="M263.22,443s6.46,10.44,12.92,10.93,6,1.49,9.94.5,6.47-1,9.45-3l3-2a73.62,73.62,0,0,1-16.4-3C274.65,444,263.22,443,263.22,443Z" style="fill:#D44E30;stroke:#263238;stroke-miterlimit:10"></path><path d="M295,458.86s11.43-8.45,17.4-9.94a55.82,55.82,0,0,1,11.92-1.49s-4.47,7.46-12.92,9.94A45,45,0,0,1,295,458.86Z" style="fill:#D44E30;stroke:#263238;stroke-miterlimit:10"></path><path d="M286.08,443.46a20.35,20.35,0,0,0-4.47-6,126.46,126.46,0,0,1-8.94-10.93s-2,8.94,1,11.93S286.08,443.46,286.08,443.46Z" style="fill:#D44E30;stroke:#263238;stroke-miterlimit:10"></path><path d="M286.08,443.46s3.48-5,8-6A94.14,94.14,0,0,1,304,436a30.11,30.11,0,0,1-7,5C293,443,286.08,443.46,286.08,443.46Z" style="fill:#D44E30;stroke:#263238;stroke-miterlimit:10"></path><path d="M283.6,461.35a75.52,75.52,0,0,0-9,.5c-3,.49-13.91,3-13.91,3s7.45,3.48,13.91,2.48A12.31,12.31,0,0,0,283.6,461.35Z" style="fill:#D44E30;stroke:#263238;stroke-miterlimit:10"></path><path d="M259.74,458.86s-6-5-9.94-5.46-10.43-.5-12.92-1.49a31.85,31.85,0,0,0-5-1.5s5.47,6.47,8.45,7.46S259.74,458.86,259.74,458.86Z" style="fill:#D44E30;stroke:#263238;stroke-miterlimit:10"></path><path d="M317.89,442.46S308.45,440,304,442s-10.44,5.46-10.44,5.46S312.92,446.94,317.89,442.46Z" style="fill:#D44E30;stroke:#263238;stroke-miterlimit:10"></path><path d="M262.23,413.64s-8.45,4.47-9,10.43-4.47,9.94-3.48,11.43,14.42-10.43,14.91-14.41,6-10.93,6-10.93Z" style="fill:#D44E30;stroke:#263238;stroke-miterlimit:10"></path><path d="M260.32,426.87s6.46,10.44,12.92,10.94,6,1.49,9.94.49,6.46-1,9.44-3l3-2a73.06,73.06,0,0,1-16.4-3C271.75,427.87,260.32,426.87,260.32,426.87Z" style="fill:#D44E30;stroke:#263238;stroke-miterlimit:10"></path><path d="M292.12,442.78s11.43-8.45,17.4-9.94a55.52,55.52,0,0,1,11.93-1.5s-4.48,7.46-12.93,9.94A45.11,45.11,0,0,1,292.12,442.78Z" style="fill:#D44E30;stroke:#263238;stroke-miterlimit:10"></path><path d="M283.18,427.37s3.48-5,7.95-6a94.14,94.14,0,0,1,9.94-1.49,29.78,29.78,0,0,1-7,5C290.14,426.87,283.18,427.37,283.18,427.37Z" style="fill:#D44E30;stroke:#263238;stroke-miterlimit:10"></path><path d="M315,426.37s-9.45-2.48-13.92-.49-10.44,5.46-10.44,5.46S310,430.85,315,426.37Z" style="fill:#D44E30;stroke:#263238;stroke-miterlimit:10"></path><path d="M286.66,441.28a28,28,0,0,0-9-3,36.13,36.13,0,0,0-9.44.5,45.05,45.05,0,0,1,8.45,4C280.69,445.26,286.66,441.28,286.66,441.28Z" style="fill:#D44E30;stroke:#263238;stroke-miterlimit:10"></path><path d="M299.21,422.18a53.63,53.63,0,0,1,6.83-5.25c4.47-3,12.43-3.48,12.43-3.48S316,419.91,314,422.4s-8.45,4-11.43,4.47-1,1,3,3.48S316,439.79,316,439.79s-7,.5-11.43-1-7.95-2-8.95-6-1.49-5.47-1.49-7S299.21,422.18,299.21,422.18Z" style="fill:#D44E30;stroke:#263238;stroke-miterlimit:10"></path><path d="M295.6,432.84s-8.45,0-9.94,3-3,9.94-3,9.94a76.78,76.78,0,0,0,8.45-5C294.61,438.3,295.6,432.84,295.6,432.84Z" style="fill:#D44E30;stroke:#263238;stroke-miterlimit:10"></path><path d="M299.08,435.82s-2.48,7.95,0,12.42a40.64,40.64,0,0,0,6,8l5-.5s-3.48-9.94-4.48-13.42S299.08,435.82,299.08,435.82Z" style="fill:#D44E30;stroke:#263238;stroke-miterlimit:10"></path><path d="M301.07,454.7s-6-5-9.94-5.46-10.44-.5-12.92-1.49a32.19,32.19,0,0,0-5-1.5s5.46,6.47,8.45,7.46S301.07,454.7,301.07,454.7Z" style="fill:#D44E30;stroke:#263238;stroke-miterlimit:10"></path><path d="M303.55,409.48s-8.44,4.47-8.94,10.43-4.47,9.94-3.48,11.43,14.41-10.43,14.91-14.41S312,406,312,406Z" style="fill:#D44E30;stroke:#263238;stroke-miterlimit:10"></path><path d="M334.79,448.43s-7,3.48-10.44-1-6.46-5-6.46-5,11.91-3.09,13.91-.8,8.46,5.28,8.46,5.28Z" style="fill:#D44E30;stroke:#263238;stroke-miterlimit:10"></path><path d="M289.56,457.37a27.88,27.88,0,0,0-8.94-3,35.7,35.7,0,0,0-9.45.5,45.07,45.07,0,0,1,8.45,4C283.6,461.35,289.56,457.37,289.56,457.37Z" style="fill:#D44E30;stroke:#263238;stroke-miterlimit:10"></path><path d="M299.36,451.49a53.48,53.48,0,0,1-5.52,6.61c-3.72,3.88-11.37,6.09-11.37,6.09s1-6.84,2.42-9.7,7.38-5.72,10.18-6.85.76-1.19-3.66-2.75-12.24-6.95-12.24-6.95,6.68-2,11.37-1.51,8.19.21,10,3.87,2.64,5,3,6.47S299.36,451.49,299.36,451.49Z" style="fill:#D44E30;stroke:#263238;stroke-miterlimit:10"></path><path d="M300.57,440.3s8.25-1.83,9.05-5.07.75-10.35.75-10.35a75.82,75.82,0,0,0-7.16,6.69C300.35,434.75,300.57,440.3,300.57,440.3Z" style="fill:#D44E30;stroke:#263238;stroke-miterlimit:10"></path><path d="M296.52,438.15s.7-8.3-2.7-12.13a40.42,40.42,0,0,0-7.55-6.46l-4.74,1.56s5.56,8.95,7.28,12.13S296.52,438.15,296.52,438.15Z" style="fill:#D44E30;stroke:#263238;stroke-miterlimit:10"></path><path d="M290.54,436.43s-8.58-8.79-15-7.87-6.15-.15-9.81,1.68-6.09,2.37-8.57,5l-2.48,2.59a73.23,73.23,0,0,1,16.66-.65C279.17,437.94,290.54,436.43,290.54,436.43Z" style="fill:#D44E30;stroke:#263238;stroke-miterlimit:10"></path><path d="M256,427.82s-9.32,10.73-14.81,13.48a55.4,55.4,0,0,1-11.32,4.05s2.74-8.25,10.45-12.51A45.18,45.18,0,0,1,256,427.82Z" style="fill:#D44E30;stroke:#263238;stroke-miterlimit:10"></path><path d="M268.12,440.91a20.44,20.44,0,0,0,5.66,4.85,127.2,127.2,0,0,1,11.11,8.73s0-9.17-3.56-11.43S268.12,440.91,268.12,440.91Z" style="fill:#D44E30;stroke:#263238;stroke-miterlimit:10"></path><path d="M268.12,440.91s-2.32,5.61-6.47,7.55a91.68,91.68,0,0,1-9.38,3.62,30.28,30.28,0,0,1,5.71-6.36C261.43,442.91,268.12,440.91,268.12,440.91Z" style="fill:#D44E30;stroke:#263238;stroke-miterlimit:10"></path><path d="M266.65,422.91a77,77,0,0,0,8.63-2.43c2.8-1.14,12.93-5.94,12.93-5.94s-8-1.77-14.12.6A12.34,12.34,0,0,0,266.65,422.91Z" style="fill:#D44E30;stroke:#263238;stroke-miterlimit:10"></path><path d="M290.48,420.15s6.9,3.55,10.89,3.17,10.29-1.78,12.94-1.35a31.77,31.77,0,0,0,5.17.37s-6.74-5.12-9.87-5.44S290.48,420.15,290.48,420.15Z" style="fill:#D44E30;stroke:#263238;stroke-miterlimit:10"></path><path d="M237.29,448.8s9.75.37,13.69-2.54,9-7.61,9-7.61S241.16,443.35,237.29,448.8Z" style="fill:#D44E30;stroke:#263238;stroke-miterlimit:10"></path><path d="M297.89,464.83s7.27-6.2,6.46-12.13,2.2-10.67.91-11.91-11.8,13.32-11.42,17.31-3.44,12-3.44,12Z" style="fill:#D44E30;stroke:#263238;stroke-miterlimit:10"></path><path d="M219.49,446.65s6-4.91,10.41-1.3,7.39,3.45,7.39,3.45-10.95,5.6-13.4,3.8-9.41-3.3-9.41-3.3Z" style="fill:#D44E30;stroke:#263238;stroke-miterlimit:10"></path><path d="M261.7,428.09a27.77,27.77,0,0,0,9.38,1,36,36,0,0,0,9.11-2.54,45.07,45.07,0,0,1-9.12-2C266.65,422.91,261.7,428.09,261.7,428.09Z" style="fill:#D44E30;stroke:#263238;stroke-miterlimit:10"></path><path d="M202,437.64s6.46,10.44,12.92,10.94,6,1.49,9.94.49,6.46-1,9.44-3l3-2a73.1,73.1,0,0,1-16.41-3C213.46,438.64,202,437.64,202,437.64Z" style="fill:#D44E30;stroke:#263238;stroke-miterlimit:10"></path><path d="M233.84,453.55s11.43-8.45,17.39-9.94a55.59,55.59,0,0,1,11.93-1.5s-4.47,7.46-12.92,9.94A45.12,45.12,0,0,1,233.84,453.55Z" style="fill:#D44E30;stroke:#263238;stroke-miterlimit:10"></path><path d="M224.89,438.14a20.35,20.35,0,0,0-4.47-6,127.27,127.27,0,0,1-8.95-10.93s-2,8.95,1,11.93S224.89,438.14,224.89,438.14Z" style="fill:#D44E30;stroke:#263238;stroke-miterlimit:10"></path><path d="M224.89,438.14s3.48-5,8-6a94.53,94.53,0,0,1,9.94-1.49,29.78,29.78,0,0,1-7,5C231.85,437.64,224.89,438.14,224.89,438.14Z" style="fill:#D44E30;stroke:#263238;stroke-miterlimit:10"></path><path d="M222.41,456a75.43,75.43,0,0,0-8.95.5c-3,.49-13.92,3-13.92,3S207,463,213.46,462A12.31,12.31,0,0,0,222.41,456Z" style="fill:#D44E30;stroke:#263238;stroke-miterlimit:10"></path><path d="M256.7,437.14s-9.44-2.48-13.92-.49-10.43,5.46-10.43,5.46S251.73,441.62,256.7,437.14Z" style="fill:#D44E30;stroke:#263238;stroke-miterlimit:10"></path><path d="M228.37,452.05a27.88,27.88,0,0,0-9-3,36.13,36.13,0,0,0-9.44.5,45.05,45.05,0,0,1,8.45,4C222.41,456,228.37,452.05,228.37,452.05Z" style="fill:#D44E30;stroke:#263238;stroke-miterlimit:10"></path><path d="M240.92,433a53.63,53.63,0,0,1,6.83-5.25c4.48-3,12.43-3.48,12.43-3.48s-2.49,6.46-4.48,8.95-8.44,4-11.43,4.47-1,1,3,3.48,10.43,9.44,10.43,9.44-7,.5-11.43-1-7.95-2-8.94-6-1.5-5.47-1.5-7S240.92,433,240.92,433Z" style="fill:#D44E30;stroke:#263238;stroke-miterlimit:10"></path><path d="M237.32,443.61s-8.45,0-9.94,3-3,9.94-3,9.94a76.78,76.78,0,0,0,8.45-5C236.32,449.07,237.32,443.61,237.32,443.61Z" style="fill:#D44E30;stroke:#263238;stroke-miterlimit:10"></path><path d="M240.79,446.59s-2.48,8,0,12.42a40.39,40.39,0,0,0,6,7.95l5-.49s-3.48-9.94-4.47-13.42S240.79,446.59,240.79,446.59Z" style="fill:#D44E30;stroke:#263238;stroke-miterlimit:10"></path><path d="M246.26,449.57s6.46,10.44,12.92,10.93,6,1.49,9.94.5,6.47-1,9.45-3l3-2a73.62,73.62,0,0,1-16.4-3C257.69,450.56,246.26,449.57,246.26,449.57Z" style="fill:#D44E30;stroke:#263238;stroke-miterlimit:10"></path><path d="M278.07,465.47s11.43-8.45,17.4-9.94A55.82,55.82,0,0,1,307.39,454s-4.47,7.46-12.92,9.94A45,45,0,0,1,278.07,465.47Z" style="fill:#D44E30;stroke:#263238;stroke-miterlimit:10"></path><path d="M269.12,450.07a20.35,20.35,0,0,0-4.47-6,127.27,127.27,0,0,1-8.95-10.93s-2,8.94,1,11.93S269.12,450.07,269.12,450.07Z" style="fill:#D44E30;stroke:#263238;stroke-miterlimit:10"></path><path d="M269.12,450.07s3.48-5,8-6a94.14,94.14,0,0,1,9.94-1.49,30.38,30.38,0,0,1-7,5C276.08,449.57,269.12,450.07,269.12,450.07Z" style="fill:#D44E30;stroke:#263238;stroke-miterlimit:10"></path><path d="M266.64,468a75.43,75.43,0,0,0-8.95.5c-3,.49-13.91,3-13.91,3s7.45,3.48,13.91,2.48A12.31,12.31,0,0,0,266.64,468Z" style="fill:#D44E30;stroke:#263238;stroke-miterlimit:10"></path><path d="M242.78,465.47s-6-5-9.94-5.46-10.43-.5-12.92-1.49a31.85,31.85,0,0,0-5-1.5s5.47,6.47,8.45,7.46S242.78,465.47,242.78,465.47Z" style="fill:#D44E30;stroke:#263238;stroke-miterlimit:10"></path><path d="M300.93,449.07s-9.44-2.48-13.91-.49S276.58,454,276.58,454,296,453.55,300.93,449.07Z" style="fill:#D44E30;stroke:#263238;stroke-miterlimit:10"></path><path d="M245.27,420.25s-8.45,4.47-9,10.43-4.47,9.94-3.48,11.43,14.42-10.43,14.91-14.41,6-10.93,6-10.93Z" style="fill:#D44E30;stroke:#263238;stroke-miterlimit:10"></path><path d="M243.35,433.48s6.47,10.44,12.93,10.94,6,1.49,9.94.49,6.46-1,9.44-3l3-2a73.06,73.06,0,0,1-16.4-3C254.79,434.48,243.35,433.48,243.35,433.48Z" style="fill:#D44E30;stroke:#263238;stroke-miterlimit:10"></path><path d="M275.16,449.39s11.43-8.45,17.4-9.94a55.52,55.52,0,0,1,11.93-1.5s-4.48,7.46-12.93,9.95A45.24,45.24,0,0,1,275.16,449.39Z" style="fill:#D44E30;stroke:#263238;stroke-miterlimit:10"></path><path d="M266.22,434s3.48-5,7.95-6a94.14,94.14,0,0,1,9.94-1.49,29.78,29.78,0,0,1-7,5C273.17,433.48,266.22,434,266.22,434Z" style="fill:#D44E30;stroke:#263238;stroke-miterlimit:10"></path><path d="M298,433s-9.45-2.48-13.92-.49S273.67,438,273.67,438,293.06,437.46,298,433Z" style="fill:#D44E30;stroke:#263238;stroke-miterlimit:10"></path><path d="M269.7,447.9a27.88,27.88,0,0,0-8.95-3,36.13,36.13,0,0,0-9.44.5,45.05,45.05,0,0,1,8.45,4C263.73,451.87,269.7,447.9,269.7,447.9Z" style="fill:#D44E30;stroke:#263238;stroke-miterlimit:10"></path><path d="M282.25,428.79a53.63,53.63,0,0,1,6.83-5.25c4.47-3,12.42-3.48,12.42-3.48S299,426.52,297,429s-8.45,4-11.43,4.47-1,1,3,3.48S299,446.4,299,446.4s-7,.5-11.43-1-7.95-2-8.95-6-1.49-5.47-1.49-7S282.25,428.79,282.25,428.79Z" style="fill:#D44E30;stroke:#263238;stroke-miterlimit:10"></path><path d="M278.64,439.45s-8.45,0-9.94,3-3,9.94-3,9.94a76.78,76.78,0,0,0,8.45-5C277.65,444.91,278.64,439.45,278.64,439.45Z" style="fill:#D44E30;stroke:#263238;stroke-miterlimit:10"></path><path d="M282.12,442.43s-2.48,7.95,0,12.42a40.82,40.82,0,0,0,6,8l5-.5s-3.48-9.94-4.48-13.42S282.12,442.43,282.12,442.43Z" style="fill:#D44E30;stroke:#263238;stroke-miterlimit:10"></path><path d="M284.11,461.31s-6-5-9.94-5.46-10.44-.5-12.92-1.49a31.5,31.5,0,0,0-5-1.49s5.46,6.46,8.45,7.45S284.11,461.31,284.11,461.31Z" style="fill:#D44E30;stroke:#263238;stroke-miterlimit:10"></path><path d="M286.59,416.09s-8.45,4.47-8.94,10.43-4.48,9.94-3.48,11.43,14.41-10.43,14.91-14.41,6-10.93,6-10.93Z" style="fill:#D44E30;stroke:#263238;stroke-miterlimit:10"></path><path d="M317.83,455s-7,3.48-10.44-1-6.46-5-6.46-5,11.91-3.09,13.91-.8,8.46,5.28,8.46,5.28Z" style="fill:#D44E30;stroke:#263238;stroke-miterlimit:10"></path><path d="M272.6,464a27.88,27.88,0,0,0-8.94-3,35.7,35.7,0,0,0-9.45.5,45.07,45.07,0,0,1,8.45,4C266.64,468,272.6,464,272.6,464Z" style="fill:#D44E30;stroke:#263238;stroke-miterlimit:10"></path><circle cx="163.29" cy="418.83" r="4.92" style="fill:#c9c9c9;stroke:#263238;stroke-miterlimit:10"></circle><circle cx="167.92" cy="425.77" r="4.92" style="fill:#c9c9c9;stroke:#263238;stroke-miterlimit:10"></circle><circle cx="165.6" cy="434.16" r="4.92" style="fill:#c9c9c9;stroke:#263238;stroke-miterlimit:10"></circle><path d="M175.16,411.39a4.92,4.92,0,1,1-4.92-4.93A4.93,4.93,0,0,1,175.16,411.39Z" style="fill:#c9c9c9;stroke:#263238;stroke-miterlimit:10"></path><circle cx="145.36" cy="428.16" r="4.92" style="fill:#c9c9c9;stroke:#263238;stroke-miterlimit:10"></circle><circle cx="172.55" cy="420.35" r="4.92" style="fill:#c9c9c9;stroke:#263238;stroke-miterlimit:10"></circle><circle cx="160.4" cy="412.83" r="4.92" style="fill:#c9c9c9;stroke:#263238;stroke-miterlimit:10"></circle><circle cx="198.59" cy="444.08" r="4.92" style="fill:#c9c9c9;stroke:#263238;stroke-miterlimit:10"></circle><circle cx="185.57" cy="448.7" r="4.92" style="fill:#c9c9c9;stroke:#263238;stroke-miterlimit:10"></circle><circle cx="174.87" cy="447.26" r="4.92" style="fill:#c9c9c9;stroke:#263238;stroke-miterlimit:10"></circle><circle cx="175.73" cy="430.19" r="4.92" style="fill:#c9c9c9;stroke:#263238;stroke-miterlimit:10"></circle><circle cx="179.49" cy="442.92" r="4.92" style="fill:#c9c9c9;stroke:#263238;stroke-miterlimit:10"></circle><circle cx="184.7" cy="436.26" r="4.92" style="fill:#c9c9c9;stroke:#263238;stroke-miterlimit:10"></circle><circle cx="189.91" cy="442.63" r="4.92" style="fill:#c9c9c9;stroke:#263238;stroke-miterlimit:10"></circle><circle cx="151.72" cy="435.11" r="4.92" style="fill:#c9c9c9;stroke:#263238;stroke-miterlimit:10"></circle><circle cx="160.11" cy="440.03" r="4.92" style="fill:#c9c9c9;stroke:#263238;stroke-miterlimit:10"></circle><circle cx="174" cy="438.58" r="4.92" style="fill:#c9c9c9;stroke:#263238;stroke-miterlimit:10"></circle><circle cx="167.92" cy="443.5" r="4.92" style="fill:#c9c9c9;stroke:#263238;stroke-miterlimit:10"></circle><circle cx="160.4" cy="426.43" r="4.92" style="fill:#c9c9c9;stroke:#263238;stroke-miterlimit:10"></circle><circle cx="155.48" cy="431.06" r="4.92" style="fill:#c9c9c9;stroke:#263238;stroke-miterlimit:10"></circle><path d="M160.12,441.76a4.93,4.93,0,1,1-4.93-4.92A4.93,4.93,0,0,1,160.12,441.76Z" style="fill:#c9c9c9;stroke:#263238;stroke-miterlimit:10"></path><circle cx="196.85" cy="451.89" r="4.92" style="fill:#c9c9c9;stroke:#263238;stroke-miterlimit:10"></circle><path d="M185.28,452.18a4.92,4.92,0,1,1-4.92-4.93A4.92,4.92,0,0,1,185.28,452.18Z" style="fill:#c9c9c9;stroke:#263238;stroke-miterlimit:10"></path><circle cx="206.69" cy="451.31" r="4.92" style="fill:#c9c9c9;stroke:#263238;stroke-miterlimit:10"></circle><circle cx="190.77" cy="453.91" r="4.92" style="fill:#c9c9c9;stroke:#263238;stroke-miterlimit:10"></circle><path d="M158.67,420.93a4.92,4.92,0,1,1-4.92-4.92A4.92,4.92,0,0,1,158.67,420.93Z" style="fill:#c9c9c9;stroke:#263238;stroke-miterlimit:10"></path></g></svg>
