<?xml version="1.0" standalone="no"?>
<!DOCTYPE svg PUBLIC "-//W3C//DTD SVG 20010904//EN"
 "http://www.w3.org/TR/2001/REC-SVG-20010904/DTD/svg10.dtd">
<svg version="1.0" xmlns="http://www.w3.org/2000/svg"
 width="256.000000pt" height="256.000000pt" viewBox="0 0 256.000000 256.000000"
 preserveAspectRatio="xMidYMid meet">

<g transform="translate(0.000000,256.000000) scale(0.100000,-0.100000)"
fill="#000000" stroke="none">
<path d="M1437 2503 c-3 -5 -8 -53 -12 -108 -4 -55 -12 -111 -17 -125 -21 -55
-77 -90 -171 -105 -60 -10 -46 -36 28 -51 45 -9 66 -19 88 -44 l28 -31 -21
-29 c-11 -15 -30 -51 -43 -78 l-23 -49 -38 73 c-113 221 -384 315 -644 224
-242 -85 -400 -352 -363 -615 22 -155 83 -286 178 -382 76 -75 144 -106 226
-101 34 2 70 8 79 12 13 6 3 -24 -36 -105 -63 -133 -81 -201 -72 -271 15 -109
75 -185 170 -213 62 -19 110 -7 151 35 26 27 30 39 30 85 0 66 -25 104 -82
124 -37 13 -44 13 -67 -2 -27 -18 -37 -69 -16 -82 15 -9 12 -45 -4 -45 -46 0
-62 105 -22 145 83 83 240 -9 238 -141 0 -59 -38 -124 -85 -149 -57 -30 -50
-51 47 -149 85 -84 245 -200 292 -212 41 -11 96 12 190 79 105 74 220 185 257
248 25 42 32 47 82 58 33 7 73 26 99 46 l43 33 -19 -91 c-12 -61 -15 -94 -8
-101 14 -14 24 -2 76 100 84 165 132 193 269 158 20 -5 25 -2 25 12 0 13 -18
28 -53 45 -99 49 -119 122 -76 280 21 75 20 114 -1 107 -6 -2 -28 -42 -49 -90
-21 -47 -48 -100 -60 -116 -31 -44 -83 -65 -145 -58 -28 3 -62 7 -75 8 -43 5
-34 -20 17 -46 111 -56 114 -162 6 -223 -116 -66 -249 -11 -249 104 0 53 34
93 80 93 17 0 36 -5 43 -12 15 -15 16 -64 2 -73 -17 -11 -11 -35 10 -35 45 0
56 95 15 135 -32 33 -89 37 -133 9 -55 -36 -76 -111 -48 -177 15 -38 76 -94
111 -103 14 -3 25 -8 25 -11 0 -13 -75 -104 -127 -154 -101 -97 -238 -189
-281 -189 -36 0 -118 84 -152 156 -52 107 -56 248 -11 350 23 50 32 54 50 20
18 -33 52 -46 117 -46 43 0 114 20 114 33 0 18 67 157 89 185 16 20 37 64 46
97 19 69 47 99 105 115 80 22 139 -11 205 -115 41 -64 59 -75 83 -51 15 15 13
22 -26 101 l-42 85 63 0 c101 1 178 46 261 154 119 156 167 371 121 546 -53
204 -224 379 -411 421 -67 15 -88 3 -52 -30 19 -19 21 -23 8 -32 -17 -11 -74
-7 -142 12 -37 10 -55 10 -92 -1 -79 -22 -166 -117 -166 -182 0 -52 -18 -51
-29 2 -15 69 -35 111 -71 145 l-29 28 39 28 c22 16 47 43 56 61 l17 33 16 -25
c24 -37 49 -60 66 -60 22 0 18 17 -12 56 -23 30 -28 52 -39 152 -7 64 -13 118
-13 120 -2 5 -30 1 -34 -5z m-675 -500 c36 -34 84 -129 93 -184 10 -56 -2
-122 -26 -154 l-21 -25 -33 20 c-18 11 -59 25 -91 31 -35 6 -70 21 -87 35 -75
63 -189 84 -258 48 -17 -8 -33 -13 -36 -10 -8 8 27 96 51 129 36 49 104 87
156 87 39 0 51 -5 77 -32 40 -43 53 -70 72 -148 11 -44 21 -65 31 -65 11 0 14
10 12 40 -6 90 -52 180 -113 225 l-40 29 33 4 c18 3 60 3 93 1 47 -3 65 -9 87
-31z m1229 31 l36 -6 -53 -53 c-43 -43 -56 -65 -74 -123 -23 -77 -23 -117 0
-117 9 0 18 20 27 62 47 232 221 254 329 42 36 -72 33 -81 -17 -64 -86 31
-173 15 -240 -42 -23 -20 -53 -34 -93 -41 -33 -7 -75 -21 -93 -32 -19 -11 -36
-20 -38 -20 -3 0 -14 19 -26 42 -42 82 -12 220 65 306 43 47 92 60 177 46z
m-1072 -100 c87 -75 158 -224 149 -314 -2 -28 -9 -38 -35 -50 -29 -13 -46 -40
-25 -40 38 0 123 39 183 85 94 71 115 72 197 6 56 -45 151 -91 187 -91 28 0
15 26 -20 39 -45 16 -51 41 -31 120 31 121 113 238 205 289 l39 22 -34 -67
c-55 -107 -58 -214 -10 -286 l24 -35 -24 -34 c-33 -44 -54 -119 -54 -191 0
-57 -2 -61 -43 -101 -24 -22 -57 -52 -75 -66 -30 -23 -36 -37 -69 -170 -40
-162 -55 -185 -107 -174 -62 13 -89 66 -43 83 24 9 77 65 77 81 0 23 -24 19
-56 -9 -41 -37 -80 -40 -118 -10 -32 25 -34 64 -5 114 53 89 -24 264 -143 326
-54 28 -86 25 -94 -8 -14 -55 50 -123 116 -123 45 0 67 -15 90 -60 27 -53 26
-96 -5 -132 -51 -60 -41 -110 32 -163 58 -41 56 -74 -5 -95 -39 -13 -43 -13
-62 5 -12 13 -33 74 -56 163 -26 97 -44 149 -58 162 -12 10 -44 40 -72 67
l-51 48 -6 77 c-5 75 -32 154 -63 189 -13 14 -11 21 13 65 23 41 28 61 28 119
-1 59 -6 81 -35 140 -19 39 -36 74 -38 78 -8 16 53 -21 97 -59z m-444 -185
c40 -11 95 -44 95 -57 0 -4 -14 -14 -31 -22 -41 -20 -39 -32 5 -47 20 -7 48
-20 62 -30 l27 -17 -50 -11 c-88 -20 -132 -56 -159 -130 l-11 -29 -31 43 c-40
55 -71 138 -78 210 -7 64 -1 73 56 89 47 14 68 14 115 1z m1745 1 c69 -19 74
-27 60 -107 -11 -71 -51 -167 -88 -212 l-19 -24 -12 36 c-22 65 -111 126 -186
127 -19 1 -19 2 3 20 13 11 42 25 63 31 48 15 50 33 4 51 l-36 14 25 23 c46
43 120 60 186 41z m-1561 -237 c52 -43 31 -152 -34 -179 -68 -28 -165 11 -165
67 0 91 133 166 199 112z m1389 3 c44 -23 73 -61 79 -103 4 -34 2 -42 -19 -55
-47 -31 -104 -42 -139 -28 -65 27 -92 129 -47 177 25 27 83 31 126 9z m-975
-92 c68 -35 89 -70 35 -59 -36 8 -78 41 -78 62 0 17 4 16 43 -3z m277 -584
c32 0 42 -15 29 -43 -14 -31 -51 -46 -97 -39 -50 7 -99 81 -54 82 9 1 28 7 42
14 21 12 27 12 44 0 11 -8 27 -14 36 -14z m780 -110 l19 -27 -40 -18 c-22 -10
-55 -36 -74 -57 l-35 -38 0 37 c-1 46 -22 107 -46 134 -16 18 -16 19 5 19 30
0 99 36 114 60 11 18 13 16 25 -32 7 -28 22 -64 32 -78z"/>
<path d="M1495 1461 c-50 -23 -109 -84 -130 -133 -28 -69 -12 -109 20 -48 17
33 49 50 95 50 37 0 88 43 98 83 18 68 -8 83 -83 48z m35 -66 c-14 -16 -75
-38 -92 -33 -15 5 28 47 67 63 26 12 30 11 33 -1 2 -8 -2 -21 -8 -29z"/>
<path d="M2203 2334 c-8 -21 13 -42 28 -27 13 13 5 43 -11 43 -6 0 -13 -7 -17
-16z"/>
<path d="M227 2334 c-14 -15 -6 -34 14 -34 14 0 19 5 17 17 -3 18 -20 27 -31
17z"/>
<path d="M1752 2203 c2 -10 10 -18 18 -18 8 0 16 8 18 18 2 12 -3 17 -18 17
-15 0 -20 -5 -18 -17z"/>
<path d="M2370 1060 c0 -15 5 -20 18 -18 9 2 17 10 17 18 0 8 -8 16 -17 18
-13 2 -18 -3 -18 -18z"/>
<path d="M335 910 c-8 -14 3 -30 21 -30 8 0 14 9 14 20 0 21 -24 28 -35 10z"/>
<path d="M180 676 c0 -8 20 -56 45 -107 68 -140 59 -212 -34 -276 -66 -46 -51
-76 20 -43 99 44 164 18 264 -107 74 -92 82 -100 96 -86 8 8 -2 39 -31 104
-47 104 -60 181 -40 229 7 17 33 48 59 70 59 51 47 71 -25 38 -60 -26 -129
-28 -166 -4 -15 10 -57 58 -94 107 -62 83 -94 109 -94 75z m249 -243 c37 -5
39 -7 30 -30 -12 -33 -11 -125 2 -160 l10 -28 -33 31 c-43 41 -89 64 -128 64
-34 0 -35 4 -15 40 8 14 14 49 15 77 l0 53 40 -21 c22 -12 57 -23 79 -26z"/>
<path d="M1200 530 c0 -15 5 -20 18 -18 9 2 17 10 17 18 0 8 -8 16 -17 18 -13
2 -18 -3 -18 -18z"/>
<path d="M1863 264 c-8 -21 13 -42 28 -27 13 13 5 43 -11 43 -6 0 -13 -7 -17
-16z"/>
<path d="M795 170 c-8 -14 3 -30 21 -30 8 0 14 9 14 20 0 21 -24 28 -35 10z"/>
</g>
</svg>
